<svg id="Blink" xmlns="http://www.w3.org/2000/svg" width="1000" height="1000.02" viewBox="0 0 1000 1000.02">
  <defs>
    <style>
      .cls-1, .cls-5 {
        fill: none;
      }

      .cls-10, .cls-2, .cls-3, .cls-4, .cls-6, .cls-7, .cls-8, .cls-9 {
        fill: #fff;
      }

      .cls-10, .cls-3, .cls-4, .cls-5, .cls-6, .cls-7, .cls-8, .cls-9 {
        stroke: #000;
        stroke-miterlimit: 10;
      }

      .cls-3, .cls-5, .cls-8 {
        stroke-width: 8px;
      }

      .cls-5, .cls-8 {
        stroke-linecap: round;
      }

      .cls-6 {
        stroke-width: 10px;
      }

      .cls-7 {
        stroke-width: 6px;
      }

      .cls-9 {
        stroke-width: 4px;
      }

      .cls-10 {
        stroke-width: 2px;
      }
    </style>
  </defs>
  <title>Mascot_initial</title>
  <g id="_1" data-name="1">
    <g id="Square1_copy_9" data-name="Square1 copy 9">
      <rect class="cls-1" width="1000" height="1000"/>
    </g>
    <g id="BG_copy_6" data-name="BG copy 6">
      <path class="cls-2" d="M8027.7,1139.94l68.11,32.32c-2.31,17.32-93.5,113.13-93.5,113.13s-53.1,100.43-58.87,109.67-26.55,54.26-26.55,54.26-48.48,13.85-47.33-3.46,139.68-288.59,158.15-305.91" transform="translate(-7688.42 -535.75)"/>
      <path class="cls-2" d="M8311.19,1136.18c15,11.54,77.34,88.89,77.34,97s-23.09,54.26-21.93,70.42,8.08,145.45,11.54,160.46,9.23,69.26,9.23,69.26l-413.27-2.69s-3.76-6.44-1.23-19.67c8.72-45.66.58-182.4,22.58-248.84" transform="translate(-7688.42 -535.75)"/>
    </g>
    <g id="Neck_copy_6" data-name="Neck copy 6">
      <path class="cls-3" d="M8105.93,1047.21c5.25,23.26,11,56.16-49.76,117-31,31,109.15,43,140.16,40.46,34-2.81,84.45-21,90.88-44.13s-45.52-21.43-53.16-72.34c-4.84-32.19-.87-43.58-.87-43.58Z" transform="translate(-7688.42 -535.75)"/>
    </g>
    <g id="Head_copy_6" data-name="Head copy 6">
      <g id="Layer_120_copy_6" data-name="Layer 120 copy 6">
        <path class="cls-2" d="M8003.88,842.64c-4.9,19.6,6.86,84.28,12.74,94.07s291-14.7,293-25.48,12.74-49-10.78-77.42-285.16-10.78-295,8.82" transform="translate(-7688.42 -535.75)"/>
      </g>
      <g>
        <path class="cls-2" d="M8310.07,887.82c8.47,28.48-16.16,129.3-36.17,150.85-13.66,14.71-57,49.92-72.34,52.33-10.75,1.68-45.39,3.19-59.95,1.3,0,0-77-35.94-89.36-59.79-14.46-28-50.79-94.66-46.95-144.69" transform="translate(-7688.42 -535.75)"/>
        <path d="M8310.07,887.82a44.53,44.53,0,0,1,1.87,9.46c.33,3.21.45,6.43.47,9.66,0,6.45-.41,12.89-1,19.31a350.66,350.66,0,0,1-6.08,38.18q-2,9.47-4.48,18.83c-1.66,6.24-3.46,12.45-5.46,18.61s-4.18,12.28-6.71,18.32a96.41,96.41,0,0,1-9.37,17.65c-.49.71-1,1.41-1.59,2.1s-1.19,1.39-1.74,2c-1.13,1.23-2.27,2.42-3.42,3.59-2.3,2.34-4.65,4.59-7,6.81-4.74,4.45-9.63,8.7-14.63,12.83s-10.08,8.16-15.3,12-10.55,7.66-16.23,11.1a92.52,92.52,0,0,1-8.94,4.81,42.86,42.86,0,0,1-5.07,2,23.91,23.91,0,0,1-3,.71l-2.57.36c-6.63.78-13.06,1.18-19.55,1.51s-13,.53-19.46.5a174.64,174.64,0,0,1-19.84-1l-.76-.09-.69-.33c-10-4.81-19.76-9.82-29.42-15.17s-19.11-11.05-28.34-17.2c-4.62-3.08-9.16-6.29-13.55-9.78a109.59,109.59,0,0,1-12.59-11.44,45.18,45.18,0,0,1-5.42-7.09c-.4-.64-.78-1.38-1.13-2l-.92-1.83-1.84-3.66q-3.67-7.34-7.26-14.76c-4.78-9.89-9.33-19.9-13.57-30s-8-20.5-11.3-31a223.59,223.59,0,0,1-7.67-32.08c-.45-2.71-.77-5.45-1.1-8.17s-.5-5.48-.59-8.22a108.35,108.35,0,0,1,.46-16.43,132.66,132.66,0,0,0,3.24,32.45,242.7,242.7,0,0,0,9.18,31.27c3.69,10.23,8,20.24,12.49,30.13s9.4,19.63,14.48,29.27c2.53,4.82,5.13,9.62,7.72,14.43l1.94,3.62,1,1.81c.31.53.57,1,.92,1.51A38.19,38.19,0,0,0,8061,1038a102.13,102.13,0,0,0,12.12,10.09c4.33,3.12,8.8,6.1,13.35,9,9.12,5.74,18.57,11.06,28.16,16.13s19.29,10.05,29,14.62l-1.45-.42a166.93,166.93,0,0,0,18.58.76c6.32,0,12.67-.13,19-.4s12.7-.63,18.82-1.3l2.2-.29a14.57,14.57,0,0,0,1.7-.4,33.52,33.52,0,0,0,3.89-1.49,83.12,83.12,0,0,0,8-4.24,288.39,288.39,0,0,0,31-21.66q3.74-2.95,7.41-6c2.45-2,4.89-4,7.29-6.1s4.76-4.16,7.05-6.3c1.14-1.07,2.27-2.15,3.35-3.25.56-.56,1-1.07,1.49-1.59s.92-1.1,1.36-1.69a90.37,90.37,0,0,0,9.05-16.05c2.65-5.7,5-11.59,7.2-17.55,4.39-11.92,8-24.17,11.29-36.5s5.93-24.85,8-37.46c1-6.31,1.76-12.65,2.16-19,.19-3.19.3-6.38.19-9.57A47.08,47.08,0,0,0,8310.07,887.82Z" transform="translate(-7688.42 -535.75)"/>
      </g>
      <path class="cls-4" d="M8003.2,851.8c-2.66-13.31,0-97.17,14.64-127.79,13.36-27.93,62.56-59.9,113.15-65.23s62.56-4,86.52,5.32,58.57,34.61,70.55,55.91,24,102.5,22.63,133.11" transform="translate(-7688.42 -535.75)"/>
    </g>
    <g id="Stubble_copy_6" data-name="Stubble copy 6">
      <ellipse cx="434.5" cy="506.02" rx="1.93" ry="2.14"/>
      <ellipse cx="443.06" cy="524.86" rx="1.93" ry="2.14"/>
      <ellipse cx="456.12" cy="510.98" rx="1.93" ry="2.14"/>
      <ellipse cx="458.01" cy="529.04" rx="1.93" ry="2.14"/>
      <ellipse cx="482.5" cy="509.51" rx="1.93" ry="2.14"/>
      <ellipse cx="447.26" cy="433.16" rx="1.93" ry="2.14"/>
      <ellipse cx="460.3" cy="428.18" rx="1.93" ry="2.14"/>
      <ellipse cx="472.16" cy="426.4" rx="1.93" ry="2.14"/>
      <ellipse cx="484.8" cy="425.95" rx="1.93" ry="2.14"/>
      <ellipse cx="498.54" cy="429.46" rx="1.93" ry="2.14"/>
      <ellipse cx="475.35" cy="532.39" rx="1.93" ry="2.14"/>
      <ellipse cx="494.01" cy="530.5" rx="1.93" ry="2.14"/>
      <ellipse cx="504.61" cy="510.09" rx="1.93" ry="2.14"/>
      <ellipse cx="522.25" cy="505.1" rx="1.93" ry="2.14"/>
      <ellipse cx="513.74" cy="525.46" rx="1.93" ry="2.14"/>
    </g>
    <g id="Hair_copy_6" data-name="Hair copy 6">
      <path d="M8000.54,863.78c2.67-6.12,4.76-14.44,2.66-38.3-1.89-21.5,6.85-61.18,14.45-70.65,15.66-19.52,40.49-46.29,39.78-67.51s-37.37-45-41.66-41.59-31.08,25-47.76,56.13c-9.34,17.43-10.67,58.08-3.41,117.24C7970.35,866,8000.54,863.78,8000.54,863.78Z" transform="translate(-7688.42 -535.75)"/>
      <path d="M8003.52,658.55c9.26-11.15,17-20.22,24.07-26,10.19-8.37,50.07-38.6,111-38.6s84.19,31.83,98.57,36.06,42.29,21.15,54.14,11.84,16.07,11,11.84,27.91-22.84,42.29-51.6,54.14S8171.36,739.1,8147,736c-28.26-3.53-72.06-3.88-97.87-18C8031,708.12,7994.7,669.16,8003.52,658.55Z" transform="translate(-7688.42 -535.75)"/>
      <path d="M8263.12,704.65c2.82,2.92,12.31,24.63,22.06,45.66,8.47,18.28,10.51,40.31,13.86,57.84,3,15.66,7.67,27.74,9,30.33,7.14,14.09,25.9-64.05,14.64-106.49-9.74-36.71-23.53-64.16-44.22-80.49s-40.28-8.71-40.28,0S8263.12,704.65,8263.12,704.65Z" transform="translate(-7688.42 -535.75)"/>
      <path d="M8292.32,656.92c9.86,13.1,22,30.11,28.66,30.36s-8.7,2.77-19.91-4S8292.32,656.92,8292.32,656.92Z" transform="translate(-7688.42 -535.75)"/>
    </g>
    <g id="L_Brow_copy_6" data-name="L_Brow copy 6">
      <path d="M8109.83,807.26c-23-7.75-42.37-1.59-54.37,4.51-7.28,3.7-7.93,7-5.94,8.16a5.62,5.62,0,0,0,5,.34c5.12-2.11,16-8.1,34-8,7.35,0,16.77,2.2,16.77,2.2S8114.52,808.84,8109.83,807.26Z" transform="translate(-7688.42 -535.75)"/>
    </g>
    <g id="L_Eye_copy_6" data-name="L_Eye copy 6">
      <path d="M8099.87,841.88c-8.61-2.78-30.76-.12-39.54,6.91-6.11,4.89,4.75,3,4.75,3s15.66-7.55,28.62-5.79S8099.87,841.88,8099.87,841.88Z" transform="translate(-7688.42 -535.75)"/>
      <circle cx="394.62" cy="318.98" r="11.34"/>
    </g>
    <g id="R_Brow_copy_6" data-name="R_Brow copy 6">
      <path d="M8200,807.64c15.54-6,38.08-8.79,54.17.43,11.67,6.68-.89,5.77-.89,5.77s-11.93-5.93-33.85-2.46a142.8,142.8,0,0,0-16.26,4S8195.49,809.36,8200,807.64Z" transform="translate(-7688.42 -535.75)"/>
    </g>
    <g id="R_Eye_copy_6" data-name="R_Eye copy 6">
      <path d="M8211,843.59c7.65-4.84,29.76-7.8,40-3.19,7.13,3.21-3.85,4.09-3.85,4.09s-17.05-3.4-29.16,1.54S8211,843.59,8211,843.59Z" transform="translate(-7688.42 -535.75)"/>
      <circle cx="544.44" cy="316.11" r="11.34"/>
    </g>
    <g id="Nose_copy_6" data-name="Nose copy 6">
      <path d="M8163.46,931.06c13.88-2.33,20-5.37,20-5.37l-3.79-2.85c-3.14,2.44-30.57,4.29-37.87,1.68l-4.21,3.2S8153.68,932.71,8163.46,931.06Z" transform="translate(-7688.42 -535.75)"/>
    </g>
    <g id="Mouth_copy_6" data-name="Mouth copy 6">
      <path d="M8130.33,987.84c1.14-1.52,2.33-5.85,4.93-4.93,12.66,4.45,39.8,4.45,59.16-3,8.28-3.2,9.48,1.9,9.48,1.9s-11.8,12.72-38.82,12.49C8135.63,994,8130.33,987.84,8130.33,987.84Z" transform="translate(-7688.42 -535.75)"/>
    </g>
    <g id="R_Ear_copy_6" data-name="R_Ear copy 6">
      <g>
        <path class="cls-2" d="M8304.89,850c7.47-29.11,30.24-32,38.86-18.63s9.15,46.42-1.49,64.05c-10.79,17.87-31.41,18.72-35.71,11.51" transform="translate(-7688.42 -535.75)"/>
        <path d="M8304.89,850a40.76,40.76,0,0,1,7.58-19.59,26.87,26.87,0,0,1,8.49-7.28,20.37,20.37,0,0,1,11.53-2.39,19.18,19.18,0,0,1,11.14,5,18.77,18.77,0,0,1,3.82,4.76l.74,1.27a9.64,9.64,0,0,1,.67,1.29l1.16,2.6a68.69,68.69,0,0,1,4.12,21.35,86.71,86.71,0,0,1-1.8,21.38c-1.55,7-4,14-8.35,20.15a35.45,35.45,0,0,1-3.61,4.26,31.37,31.37,0,0,1-4.22,3.64,32.8,32.8,0,0,1-9.87,4.91,26.06,26.06,0,0,1-10.84.89,17.1,17.1,0,0,1-5.18-1.6,8.3,8.3,0,0,1-3.74-3.7,8.13,8.13,0,0,0,4.2,2.58,15.66,15.66,0,0,0,4.85.51,24.51,24.51,0,0,0,9.36-2.36A31.27,31.27,0,0,0,8338.76,895c3.19-5.4,5-11.71,6.14-18.13.13-.81.29-1.6.41-2.41l.3-2.44c.24-1.62.3-3.27.43-4.9s.12-3.28.2-4.92,0-3.28-.08-4.92a82.11,82.11,0,0,0-1-9.73,54.11,54.11,0,0,0-2.24-9.28l-.84-2.14a6.18,6.18,0,0,0-.47-1l-.51-1a12.89,12.89,0,0,0-2.37-3.4,13.16,13.16,0,0,0-7.08-3.82,14.29,14.29,0,0,0-4.23-.15,18.65,18.65,0,0,0-4.28,1.06,22.83,22.83,0,0,0-7.76,5.13,37.59,37.59,0,0,0-6.06,7.78A65.6,65.6,0,0,0,8304.89,850Z" transform="translate(-7688.42 -535.75)"/>
      </g>
      <path d="M8319,856.79a8.25,8.25,0,0,1,4.25,2.4c.28.28.55.58.82.89s.46.62.69.94a11.94,11.94,0,0,1,1.15,2,18.51,18.51,0,0,1-.74,17,14.48,14.48,0,0,1-2.95,3.56,9,9,0,0,1-4.34,2.12l-.44-.4c.35-.51.74-1,1-1.51a17.74,17.74,0,0,0,.83-1.64,22.6,22.6,0,0,0,1.25-3.46,31,31,0,0,0,1-7.32,32.09,32.09,0,0,0-.41-7.38L8321,863l-.24-.89c-.08-.3-.15-.6-.24-.89l-.32-.86a11.65,11.65,0,0,0-1.68-3.22Z" transform="translate(-7688.42 -535.75)"/>
    </g>
    <g id="L_Ear_copy_6" data-name="L_Ear copy 6">
      <g>
        <path class="cls-2" d="M8003.23,862.53c-9.89-30.8-32.53-32.6-39.82-17.74s-4.94,50.32,7.07,68.63c12.17,18.55,39.17,17.79,42.78,9.81" transform="translate(-7688.42 -535.75)"/>
        <path d="M8003.23,862.53q-.62-1.26-1.2-2.52l-1.28-2.46c-.43-.81-.9-1.61-1.34-2.41l-1.45-2.32a42.31,42.31,0,0,0-6.85-8.2,28.31,28.31,0,0,0-4.08-3.12,20.56,20.56,0,0,0-4.48-2.05,13.46,13.46,0,0,0-8.94.06,12.42,12.42,0,0,0-6.35,5.7,31.44,31.44,0,0,0-2.93,9.34,70.51,70.51,0,0,0-1,10.45,103.71,103.71,0,0,0,.23,10.66,109.33,109.33,0,0,0,3.52,21,72.07,72.07,0,0,0,3.5,9.94,49,49,0,0,0,2.34,4.63,30.08,30.08,0,0,0,2.87,4.13,32.07,32.07,0,0,0,7.71,6.63,36.82,36.82,0,0,0,9.62,4.08,34.22,34.22,0,0,0,10.57,1.16,19.86,19.86,0,0,0,5.26-1,7.82,7.82,0,0,0,4.32-3.08,8,8,0,0,1-3.87,4.08,20.14,20.14,0,0,1-5.42,2,33.54,33.54,0,0,1-11.55.39,37,37,0,0,1-11.25-3.33,36.05,36.05,0,0,1-5.17-3,35.32,35.32,0,0,1-4.61-3.92,33,33,0,0,1-3.85-4.7,50.59,50.59,0,0,1-3.08-5.07,68.87,68.87,0,0,1-4.5-10.78,86.45,86.45,0,0,1-2.86-11.2,101.72,101.72,0,0,1-1.51-11.42,93.89,93.89,0,0,1-.19-11.55,72,72,0,0,1,1.42-11.62,45.58,45.58,0,0,1,1.62-5.81,28.34,28.34,0,0,1,2.71-5.75,20,20,0,0,1,4.47-5,17.72,17.72,0,0,1,6-3.1,18.69,18.69,0,0,1,12.84,1,25.6,25.6,0,0,1,5.27,3.23,32.64,32.64,0,0,1,4.29,4.17A46.38,46.38,0,0,1,8003.23,862.53Z" transform="translate(-7688.42 -535.75)"/>
      </g>
      <path d="M7988.15,871.88a31.59,31.59,0,0,0,1.19,4.18l1.17,3.55a65.06,65.06,0,0,1,1.76,6.88c.45,2.31.78,4.63,1,7.05.11,1.21.2,2.46.29,3.78,0,.7.12,1.3.14,2.07a9.1,9.1,0,0,0,.12,1.1c0,.4.09.78.12,1.24l-.4.44c-.48-.49-1-.94-1.45-1.47s-.89-1.05-1.25-1.64a27,27,0,0,1-2-3.61,37.9,37.9,0,0,1-2.5-7.78,38.84,38.84,0,0,1-.69-8.15,17.8,17.8,0,0,1,.14-2l.11-1c.06-.34.13-.68.2-1a13,13,0,0,1,1.49-3.87Z" transform="translate(-7688.42 -535.75)"/>
    </g>
    <g id="Torso_copy_6" data-name="Torso copy 6">
      <g id="R">
        <path d="M8369.1,1282.16a39.43,39.43,0,0,0-1.34,7.75c-.25,2.61-.36,5.23-.38,7.85,0,5.24.14,10.49.51,15.72.65,10.48,1.76,20.94,2.87,31.4l3.59,31.39q1.79,15.71,3.43,31.46c1,10.51,2,21,2.7,31.58s1.24,21.13,1.22,31.74a222.59,222.59,0,0,1-1.82,31.81c-.2,1.32-.39,2.64-.65,3.95s-.49,2.62-.78,3.93a66.23,66.23,0,0,1-2.13,7.73,41.9,41.9,0,0,1-3.25,7.33,21.78,21.78,0,0,1-5.06,6.13,21.33,21.33,0,0,0,4.25-6.54,41.33,41.33,0,0,0,2.46-7.39,93.29,93.29,0,0,0,2.23-15.45c.39-5.2.52-10.44.48-15.67s-.15-10.47-.41-15.71-.59-10.47-.93-15.71-.8-10.47-1.27-15.71q-1.34-15.71-3-31.42l-3.1-31.47c-.93-10.51-1.95-21-2.6-31.57s-1.2-21.12-1.16-31.73c.07-5.3.23-10.61.77-15.9S8367.08,1287.07,8369.1,1282.16Z" transform="translate(-7688.42 -535.75)"/>
      </g>
      <g id="L">
        <path d="M7973.74,1531.27a74.65,74.65,0,0,1-3-14.48c-.26-2.45-.55-4.92-.69-7.38s-.34-4.93-.42-7.39c-.36-9.87-.27-19.73.06-29.57s.89-19.66,1.47-29.48,1.42-19.6,2.15-29.39c1.52-19.57,3.32-39.1,4.6-58.64.18-2.44.32-4.88.45-7.33s.26-4.89.38-7.33.24-4.89.3-7.33l.11-3.67,0-3.66c.08-9.76,0-19.58-2.34-29.14a65.16,65.16,0,0,1,3.74,14.32c.34,2.44.73,4.9.93,7.36l.36,3.69c.11,1.23.17,2.46.26,3.7.59,9.86.67,19.74.45,29.59-.41,19.71-1.74,39.33-3.3,58.92l-2.47,29.34c-.91,9.77-1.65,19.54-2.46,29.3s-1.45,19.53-1.79,29.31S7972,1521.58,7973.74,1531.27Z" transform="translate(-7688.42 -535.75)"/>
      </g>
      <g id="Matte_copy_6" data-name="Matte copy 6">
        <path class="cls-2" d="M7975.28,1335.74c4.62-5.39,13.85-20.78,17.7-27.71s-23.09-38.48-23.09-38.48l-32.32,23.09-3.85,30,41.56,13.08" transform="translate(-7688.42 -535.75)"/>
      </g>
    </g>
    <g id="Ramen_copy_6" data-name="Ramen copy 6">
      <path class="cls-5" d="M8198.81,1491.93c10.77-3.37,47.14-22.22,33.67-30.3s-43.77-3.37-47.14-15.49,6.06-29,6.06-39.73-6.06-8.08-7.41-12.12" transform="translate(-7688.42 -535.75)"/>
      <path class="cls-5" d="M8219,1444.12c6.73.67,31,12.79,26.26,23.57" transform="translate(-7688.42 -535.75)"/>
      <path class="cls-5" d="M8163.12,1415.84c-12.79,9.43-25.15,23.52-22.08,39.94,3.35,17.87,16.93,20.52,28.81,12.58,10-6.66,16.83-7.12,21.55-3.75" transform="translate(-7688.42 -535.75)"/>
      <path class="cls-5" d="M8126.09,1451.53c4.71-5.39,4.71-21.55,2.69-26.93" transform="translate(-7688.42 -535.75)"/>
      <path class="cls-5" d="M8136.86,1428c-.67-8.08,7.41-12.12,10.1-10.77" transform="translate(-7688.42 -535.75)"/>
      <path class="cls-5" d="M8206.89,1441.43c-7.41-1.35-19.53-8.75-5.39-30.3" transform="translate(-7688.42 -535.75)"/>
      <path class="cls-5" d="M8173.9,1446.14c-4.71-8.08-2-32.32,5.39-39.73" transform="translate(-7688.42 -535.75)"/>
      <path class="cls-5" d="M8142.92,1486.54c10.1,2.69,32.32,10.1,41.08.67s10.77-14.81,16.83-13.47" transform="translate(-7688.42 -535.75)"/>
      <path class="cls-5" d="M8208.78,1468.61c4.1,2.05,9.24,2.05,8.21,5.13" transform="translate(-7688.42 -535.75)"/>
      <path class="cls-5" d="M8239,1431.66c2.57,3.59,5.13,7.7,4.1,12.83" transform="translate(-7688.42 -535.75)"/>
      <path class="cls-5" d="M8217,1427.56c5.13-4.1,6.67-10.77,3.59-16.42" transform="translate(-7688.42 -535.75)"/>
      <path class="cls-5" d="M8211.34,1416.27c-5.13,6.16-9.75,15.91-1,17.44s19.5,2.05,22.58,5.64" transform="translate(-7688.42 -535.75)"/>
      <path class="cls-5" d="M8230.32,1426c3.59-7.7,7.7-26.68-15.39-27.19" transform="translate(-7688.42 -535.75)"/>
      <path class="cls-5" d="M8163.11,1435.26c-4.62,6.16-9.24,18.47-4.62,22.06s7.18,3.59,13.34-.51" transform="translate(-7688.42 -535.75)"/>
      <path class="cls-5" d="M8242.64,1420.38c5.64,5.64,14.37,18,10.77,28.73" transform="translate(-7688.42 -535.75)"/>
      <path class="cls-5" d="M8096.41,1444.49c8.21.51,27.71,11.29,30.78,23.6" transform="translate(-7688.42 -535.75)"/>
      <path class="cls-5" d="M8116.42,1444.49c3.59-3.08,5.64-10.77,3.59-15.39s-4.1-14.88,2.05-17.44,30.14-6.48,37.45-9.75c8.67-3.87,18.51-7.37,14.37-18.47" transform="translate(-7688.42 -535.75)"/>
      <path class="cls-5" d="M8202.62,1400.37c-.51-7.18,2.05-20.52,10.26-21.55,6.62-.83,20,4.62,21.55,14.88" transform="translate(-7688.42 -535.75)"/>
      <path class="cls-5" d="M8238.4,1405c5.33,4.36,24.21,11.14,25.66,27.6s-2.42,22.76-7.26,26.15" transform="translate(-7688.42 -535.75)"/>
      <path class="cls-5" d="M8233.56,1377.41c5.33,3.87,12.59,14.53,10.65,20.34" transform="translate(-7688.42 -535.75)"/>
      <path class="cls-5" d="M8120.74,1474.25c4.84,1.94,13.07,5.81,16.95,5.81" transform="translate(-7688.42 -535.75)"/>
      <path class="cls-5" d="M8100.41,1472.8c4.36,3.39,22.27,14,28.57,14.53" transform="translate(-7688.42 -535.75)"/>
      <path class="cls-5" d="M8081.52,1463.6c4.36,4.84,12.59,3.87,16.46,1.94s10.65-1.94,13.07,1" transform="translate(-7688.42 -535.75)"/>
      <path class="cls-5" d="M8075.71,1439.87c.48,4.84,1.94,9.68,8.23,10.17" transform="translate(-7688.42 -535.75)"/>
      <path class="cls-5" d="M8092.66,1389.52c-7.75,6.78-18.4,17.64-18.4,28.57,0,11.62,8.72,17.91,15,20.34" transform="translate(-7688.42 -535.75)"/>
      <path class="cls-5" d="M8093.14,1400.65c-5.33,7.26-10.65,15-3.39,24.21s15,13.07,18.4,14" transform="translate(-7688.42 -535.75)"/>
      <path class="cls-5" d="M8102.83,1404c-4.36,2.42-8.23,9.2-5.81,14.53" transform="translate(-7688.42 -535.75)"/>
      <path class="cls-5" d="M8114,1403.07c-4.82,2.6-7.26,10.17-7.75,16.46s1.94,11.14,3.87,13.07" transform="translate(-7688.42 -535.75)"/>
      <path class="cls-5" d="M8163.35,1352.72c3.39,6.78,12.1,11.62,17.91,12.59s16.46,1.94,19.37,5.81" transform="translate(-7688.42 -535.75)"/>
      <path class="cls-5" d="M8175.45,1374c4.84,0,16.46,2.42,18.4,5.33s1.45,5.81-1,6.78" transform="translate(-7688.42 -535.75)"/>
      <path class="cls-5" d="M8213.22,1370.63c5.33-1.94,19.91-5.54,27.11-1.94,8.72,4.36,15.49,20.82,11.62,33.89" transform="translate(-7688.42 -535.75)"/>
      <path class="cls-5" d="M8129.94,1376.44c5.33-1.94,9.2-4.36,10.65-7.26" transform="translate(-7688.42 -535.75)"/>
      <path class="cls-5" d="M8141.08,1358c5.33,1.94,15,6.78,13.07,13.56s-16.46,16.95-32.44,17.43" transform="translate(-7688.42 -535.75)"/>
      <path class="cls-5" d="M8127.52,1395.33c6.78.48,34.86-5.33,36.31-17.43s-8.23-18.4-16.95-26.63-8.72-20.82-1-26.63,19.37-11.14,29.53-5.81c6.43,3.37,11.62,9.68,11.14,13.56" transform="translate(-7688.42 -535.75)"/>
      <path class="cls-5" d="M8160.45,1343.52c-1.94-2.91,1.45-10.65,8.72-4.36" transform="translate(-7688.42 -535.75)"/>
      <path class="cls-5" d="M8156.57,1347.88c-5.81-1.94-8-12.46-5.33-16.95,2.91-4.84,7.75-7.75,15.49-3.39s9.68,12.59,15,14.53,13.1-1.43,17.43-5.33c4.84-4.36,13.07,0,15,1.94" transform="translate(-7688.42 -535.75)"/>
      <path class="cls-5" d="M8167.71,1348.85c4.36-1.94,8.72-1.94,11.14,0" transform="translate(-7688.42 -535.75)"/>
      <path class="cls-5" d="M8188.53,1349.81c2.91-.48,10.25-.87,13.07,2.42s7.26,2.91,11.14,2.91" transform="translate(-7688.42 -535.75)"/>
      <path class="cls-5" d="M8187.56,1318.34c3.39,1.94,7.75,6.78,7.26,10.17" transform="translate(-7688.42 -535.75)"/>
      <path class="cls-5" d="M8204,1344c4.84-.48,30,4.84,32.44,12.59" transform="translate(-7688.42 -535.75)"/>
      <path class="cls-5" d="M8176.42,1356.59c4.84,0,19.85,2.42,26.15,6.29s13.56-.48,17.43-1.94,4.84-1.94,7.26-1.45" transform="translate(-7688.42 -535.75)"/>
      <path class="cls-5" d="M8121.23,1378.87c-6.29,1.45-13.07,3.39-12.59,9.68.5,6.48,7.26,7.75,12.1,9.2" transform="translate(-7688.42 -535.75)"/>
      <path class="cls-5" d="M8102.34,1396.3c-2.91-5.33-5.25-15.8-1.94-19.85,4.36-5.33,10.17-6.29,18.4-6.78s16-1,14-11.14-4.36-12.59-4.36-12.59" transform="translate(-7688.42 -535.75)"/>
      <path class="cls-5" d="M8085.75,1383c-1.13-6.41,13.2-24,28.21-21.59" transform="translate(-7688.42 -535.75)"/>
      <path class="cls-5" d="M8120.79,1346.48c-2.64,3.77-1.51,10.93,2.64,12.43" transform="translate(-7688.42 -535.75)"/>
      <path class="cls-5" d="M8120.79,1332.16c2.64-2.64,10.93-6.78,13.56-5.65" transform="translate(-7688.42 -535.75)"/>
    </g>
    <g id="Bowl_copy_6" data-name="Bowl copy 6">
      <path class="cls-6" d="M8071.49,1429.63c0,20.89,15.93,98.06,50,99.16s97.7.59,111.06-.11c32.09-1.68,39.24-71.12,35.94-97.51C8263.31,1426.2,8078.24,1426.38,8071.49,1429.63Z" transform="translate(-7688.42 -535.75)"/>
    </g>
    <g id="R_Hand_copy_6" data-name="R_Hand copy 6">
      <path id="Pinkie" class="cls-7" d="M8228.23,1504.19c-1.81.85-35.43,12.13-40.72,14.25s-1.06,8.47,0,12.71,40.85-7.89,53.56-11.07c0,0,12.84-5.49,22-5.49s28.83-2.38,35.16-3.78,19.69-6.77,26-7.47,33.76-4.92,32.35-17.58-.7-30.94-5.63-34.46" transform="translate(-7688.42 -535.75)"/>
      <path id="Rhumb" class="cls-7" d="M8219.23,1445.15c-.53-1.31-11.17-8.5-17.17-10.23-7.65-2.21-19.23-3.86-20.46-8s2.49-12.84,4.48-12.17c11.53,3.84,23.14,4.09,28.19,5.13,7.25,1.49,27,2.25,29.88,2.29,9,.12,22.65,4.29,27.78,7.32,32.58,19.27,48.72,6.32,55.57,22,3.07,7,5.72,46.21,5.72,46.21" transform="translate(-7688.42 -535.75)"/>
      <g id="Ring">
        <path class="cls-2" d="M8219.68,1498.07c-7.48.85-57.07,3.64-61.75,1.09s-7.3-13.18-4.68-14.41c4-1.89,58.56-3.55,63.24-2.71" transform="translate(-7688.42 -535.75)"/>
        <path d="M8219.68,1498.07c-5.83,1.18-11.73,1.88-17.61,2.59s-11.8,1.21-17.72,1.62-11.85.69-17.87.65c-1.51,0-3,0-4.58-.14-.78,0-1.57-.12-2.41-.24-.42-.06-.86-.13-1.34-.24a8.35,8.35,0,0,1-.82-.24,5.78,5.78,0,0,1-1-.45,12,12,0,0,1-4.08-4.16,21.18,21.18,0,0,1-2.13-4.69,17.53,17.53,0,0,1-.91-5.24,9.6,9.6,0,0,1,.13-1.6,6.14,6.14,0,0,1,.69-2,4.59,4.59,0,0,1,1-1.22,4.1,4.1,0,0,1,.78-.53,3.13,3.13,0,0,1,.36-.17l.31-.12a11.25,11.25,0,0,1,1.5-.37c1.67-.3,3.14-.43,4.66-.57s3-.23,4.49-.32c6-.33,11.88-.48,17.82-.5s11.86.07,17.79.33c3,.15,5.93.3,8.89.53a69.82,69.82,0,0,1,8.86,1.09c-1.48,0-3,.14-4.43.26l-4.42.38-8.84.79-17.65,1.45c-5.88.48-11.76.9-17.59,1.42-1.46.13-2.91.26-4.34.42s-2.89.33-4.13.56c-.28.05-.6.13-.65.15l.05,0,.11-.05a1.93,1.93,0,0,0,.33-.22,1.4,1.4,0,0,0,.31-.36c.08-.15,0-.07,0,.07a3.77,3.77,0,0,0,0,.61,12.89,12.89,0,0,0,.62,3.46,15.31,15.31,0,0,0,1.49,3.37,6.68,6.68,0,0,0,1.95,2.22,4.77,4.77,0,0,0,1.09.26c.62.1,1.31.18,2,.25,1.39.14,2.83.23,4.27.3,5.8.25,11.7.31,17.58.36Z" transform="translate(-7688.42 -535.75)"/>
      </g>
      <g id="Index">
        <path class="cls-2" d="M8214,1464.72s-61.89.88-64.52.88-5.48-13.22-1.32-15.05c4-1.74,50.16-3.24,57.14-3.72,0,0,13.94.19,17.48-.65" transform="translate(-7688.42 -535.75)"/>
        <path d="M8214,1464.72c-11.54,1.28-23.09,2-34.64,2.66l-8.67.43-8.67.32-8.67.29-2.17,0-1.08,0h-.89a3.36,3.36,0,0,1-.59-.09,3.86,3.86,0,0,1-.95-.36,5.26,5.26,0,0,1-1.78-1.61,9.7,9.7,0,0,1-.8-1.35,16.52,16.52,0,0,1-1-2.46,24.32,24.32,0,0,1-1-4.84,16.25,16.25,0,0,1,.26-5.28,7.76,7.76,0,0,1,1.51-3.15,5.51,5.51,0,0,1,1.81-1.44,7.23,7.23,0,0,1,1.74-.55c1.69-.33,3.11-.47,4.61-.62,2.95-.26,5.85-.45,8.75-.61l8.7-.33c11.57-.41,23.17-.33,34.68-.21h.1c2.9.19,5.81.35,8.72.51l4.37.16a35.28,35.28,0,0,0,4.37-.09,29.22,29.22,0,0,1-4.33.83c-1.46.2-2.92.33-4.38.47-2.93.27-5.85.45-8.79.58h.1c-11.57,1.33-23.06,2.21-34.56,3.09l-8.6.71c-2.86.23-5.72.47-8.52.79-1.38.15-2.83.32-4,.56-.26,0-.52.15-.33.07a.9.9,0,0,0,.14-.09,2.28,2.28,0,0,0-.28.75,11.34,11.34,0,0,0-.16,3.34,18.49,18.49,0,0,0,.67,3.65,10.85,10.85,0,0,0,.59,1.58,4.22,4.22,0,0,0,.29.52c.05.1.16.11-.23-.12a2,2,0,0,0-.45-.16l-.32,0h3.71l8.66.06,8.66.08,8.66.2C8190.91,1463.31,8202.47,1463.75,8214,1464.72Z" transform="translate(-7688.42 -535.75)"/>
      </g>
      <g id="Layer_20_copy_6" data-name="Layer 20 copy 6">
        <g>
          <path class="cls-2" d="M8219.84,1481.83c-6.31.7-70.79,1.4-77.8,1.4s-7.89-14.9-4.38-15.6c0,0,73.62-4,79.38-3.15" transform="translate(-7688.42 -535.75)"/>
          <path d="M8219.84,1481.83c-8.05,1.21-16.16,1.69-24.25,2.3l-12.14.72-12.14.56c-4,.18-8.1.27-12.15.4s-8.1.26-12.15.3l-3,0-1.53,0H8142l-.61,0a6.94,6.94,0,0,1-1.23-.19,8,8,0,0,1-4-2.47,11.92,11.92,0,0,1-2.12-3.41,18.66,18.66,0,0,1-1.41-7,15,15,0,0,1,.41-3.77,8.11,8.11,0,0,1,.89-2.21,5.5,5.5,0,0,1,1.07-1.3,4.56,4.56,0,0,1,2-1l.2,0h.22q9.93-.49,19.86-.78l9.93-.3,9.94-.16,5-.07h5c3.32,0,6.63,0,10,.07s6.64.11,10,.27a89.46,89.46,0,0,1,9.95.79c-3.31.05-6.61.46-9.91.73l-9.9.91c-3.3.33-6.6.57-9.9.87s-6.6.58-9.9.82l-9.9.79-9.91.69q-9.9.72-19.81,1.3l.42-.05a1.45,1.45,0,0,0,.71-.32.68.68,0,0,0,.12-.12,2.65,2.65,0,0,0-.21.61,9.18,9.18,0,0,0-.21,2.25,14.07,14.07,0,0,0,.92,4.81,6.14,6.14,0,0,0,1,1.76,2.14,2.14,0,0,0,1,.72,1.13,1.13,0,0,0,.27,0l.15,0H8147c4,0,8.09,0,12.14.05l12.14.11,12.15.21,12.15.32Z" transform="translate(-7688.42 -535.75)"/>
        </g>
      </g>
      <g id="Crease">
        <path class="cls-2" d="M8232.12,1448.42c-3.64.23-15.62-4-19.71-8.14" transform="translate(-7688.42 -535.75)"/>
        <path d="M8232.14,1448.72a17.53,17.53,0,0,1-5.74.19c-.94-.11-1.88-.23-2.82-.39s-1.85-.38-2.77-.62-1.88-.4-2.83-.61a6.57,6.57,0,0,1-2.6-1.28,9.94,9.94,0,0,1-2.06-2.28,6.75,6.75,0,0,1-1.13-3.23l.42-.42a23.59,23.59,0,0,1,3.09.15,14.7,14.7,0,0,1,2.56.53,6.58,6.58,0,0,1,2.23,1.16,18.77,18.77,0,0,0,2.12,1.55c.74.46,1.51.88,2.28,1.3s1.54.87,2.33,1.27a25,25,0,0,0,4.87,2.09Z" transform="translate(-7688.42 -535.75)"/>
      </g>
      <ellipse id="Filler" class="cls-2" cx="581.79" cy="944.02" rx="44.88" ry="26.11"/>
    </g>
    <g id="R_Arm_copy_6" data-name="R_Arm copy 6">
      <path class="cls-8" d="M8324.69,1130.25c15.39,26.17,71,27.17,100.05,44.64,48,28.88,109.23,216.64,117,274,5.77,42.7,23.31,82.07-.75,79.07-21.54-2.69-223.2,11.4-223.2-2.16s-8.29-89.28,5.28-93.35,111.23,14.32,109.38-.49c-4.07-32.56-80-136-82.73-160.37" transform="translate(-7688.42 -535.75)"/>
      <path class="cls-9" d="M8316.62,1520.24c5.64,5.64,14.58,2.42,19.42-.81s6.45-92.69,6.45-92.69l-23.15,6.1Z" transform="translate(-7688.42 -535.75)"/>
      <path class="cls-7" d="M8319.8,1509.43c7,10.06,35.14,24.28,49.45,12.35s-.54-82.74,1.85-89.9-48.91-6.2-51.3,1S8311.45,1497.5,8319.8,1509.43Z" transform="translate(-7688.42 -535.75)"/>
      <circle class="cls-10" cx="670.13" cy="980.78" r="4.23"/>
    </g>
    <g id="Scarf_copy_6" data-name="Scarf copy 6">
      <g id="Layer_17_copy_6" data-name="Layer 17 copy 6">
        <path class="cls-3" d="M8122.3,1309.47c17.37,4.77,52-8,63.58-19.56s41.24-37.6,73.57-37.6,48.12-30.33,51.5-45c4.9-21.25,17.17-25.34,16.35-49.86-.67-20.15-16.77-75.28-51.4-75.28-18.87,0-39.25,42.71-56.56,68.11s-58.87,67-91.2,77.34-25.5,84-5.82,81.8" transform="translate(-7688.42 -535.75)"/>
      </g>
      <path class="cls-3" d="M8089.2,1202.65c1.5-12,12-30.09,28.59-34.61,5.48-1.49,15.58-4.14,26.91-7.4,22.89-6.58,50.81-15.65,55.84-22.69,7.52-10.53,42.7-27.1,36.11-37.61-5.4-8.62-3.88-12.25-5-19-.59-3.48,2.94-8.5,5.41-10.14,6.09-4.06,8.82-7.11,15.55-6.09,7.58,1.16,17.47.68,25.37,4.48,10.09,4.86,31.1,13.4,37.28,27.83,8,18.73,24.47,50.54-2.13,65.28s-110.28,42.8-125.67,69.73c-20.61,36.07-64.47,66.12-65.14,77.06-.92,14.9-42.13,9-54.17-28.59s-47.7-53.65-43.19-73.21,18.66-43.76,12.41-62.54c-7.77-23.31-.81-50.13,11.22-62.17s39-17.21,50.53-11.8c14.1,11.35,21.82,6.53,12.87,19.16-8.57,12.09-9.06,23.63-18.32,30.2,0,0,38.41,28.58,49.71,41.49" transform="translate(-7688.42 -535.75)"/>
    </g>
    <g id="Chopsticks_copy_6" data-name="Chopsticks copy 6">
      <path class="cls-7" d="M8060.39,1270.06c4.59,4.55,132.43,153.44,131.58,160.26S8063.13,1289,8053.12,1279.79C8049.61,1276.59,8057.31,1267,8060.39,1270.06Z" transform="translate(-7688.42 -535.75)"/>
      <path class="cls-7" d="M8082.51,1251.77c3.9,5.15,109.48,170.57,107.67,177.21s-107.62-158.11-116.24-168.6C8070.92,1256.72,8079.9,1248.32,8082.51,1251.77Z" transform="translate(-7688.42 -535.75)"/>
    </g>
    <g id="L_Hand_copy_6" data-name="L_Hand copy 6">
      <g id="Layer_34_copy_6" data-name="Layer 34 copy 6">
        <path class="cls-2" d="M8036.3,1384.5c18.73-8.92,38.35-24.53,48.17-24.53H8138c7.14,0,9.81,20.07,8.92,24.08s-6.24,20.52-14.27,25-70.91,22.75-81.17,20.52S8036.3,1384.5,8036.3,1384.5Z" transform="translate(-7688.42 -535.75)"/>
      </g>
      <g>
        <path class="cls-2" d="M7962.61,1393.13c20.2-11.29,62.42-18.91,67.5-19.92s39.56-22.32,45.65-25.36,19.27-16.23,25.36-17.24,14.2,2,20.29,2,37.53-2,40.57,2,7.79,19.21,5.77,23.27" transform="translate(-7688.42 -535.75)"/>
        <path d="M7962.61,1393.13a94.87,94.87,0,0,1,13.48-6.61q7-2.81,14.15-5.09c9.55-3,19.25-5.62,29-7.85l7.34-1.64,1.83-.39.91-.2c.14,0,.33-.06.42-.1l.26-.09a34,34,0,0,0,3.1-1.49c4.3-2.3,8.57-4.9,12.82-7.47l12.79-7.74c4.26-2.62,8.52-5.18,12.91-7.7l1.68-.94,1.6-.86a32.58,32.58,0,0,0,2.83-1.9c1.92-1.42,3.84-3,5.78-4.54s3.92-3.12,6-4.66a55.72,55.72,0,0,1,6.57-4.39,15.29,15.29,0,0,1,4.32-1.7,21.2,21.2,0,0,1,4.39-.25,54,54,0,0,1,7.81,1.13c2.47.49,4.86,1,7.12,1.24.57.07,1.11.09,1.66.11h1.8l3.73-.05c5,0,10-.06,15.05.06,2.52,0,5,.19,7.57.37a72.77,72.77,0,0,1,7.62.91,17.85,17.85,0,0,1,3.92,1.12,6.88,6.88,0,0,1,1,.57,4.38,4.38,0,0,1,.55.45,3.15,3.15,0,0,1,.47.57,14.24,14.24,0,0,1,1,1.79,44.86,44.86,0,0,1,2.59,7.23,57.9,57.9,0,0,1,1.52,7.43,27.93,27.93,0,0,1,.24,3.79,8,8,0,0,1-.71,3.69,5.11,5.11,0,0,0,.31-1.82,12.77,12.77,0,0,0-.09-1.85,28.54,28.54,0,0,0-.69-3.64,56.57,56.57,0,0,0-2.25-7.05,46.7,46.7,0,0,0-3.07-6.62,11.76,11.76,0,0,0-.95-1.41c-.11-.15-.08-.08-.14-.14l-.2-.12a4.43,4.43,0,0,0-.63-.26,18.2,18.2,0,0,0-3.35-.63,115.26,115.26,0,0,0-14.71-.16c-5,.15-9.91.45-14.89.76l-3.76.19c-.64,0-1.27.05-1.95.06s-1.41,0-2.08-.07c-2.72-.19-5.23-.67-7.68-1.06a53.83,53.83,0,0,0-7-.82,15.85,15.85,0,0,0-3.07.2,10.21,10.21,0,0,0-2.58,1.13,57.11,57.11,0,0,0-5.83,4c-1.94,1.48-3.86,3-5.81,4.59s-3.94,3.12-6.05,4.64a37.91,37.91,0,0,1-3.42,2.23l-1.7.89-1.6.87c-8.59,4.91-17.31,9.89-26.06,14.73-4.43,2.37-8.83,4.73-13.46,6.9a28.76,28.76,0,0,1-3.76,1.5l-.64.16-.49.09-.93.16-1.84.32L8020,1377c-9.78,1.85-19.53,3.89-29.16,6.39-4.81,1.26-9.61,2.6-14.33,4.17A107.18,107.18,0,0,0,7962.61,1393.13Z" transform="translate(-7688.42 -535.75)"/>
      </g>
      <g>
        <path class="cls-2" d="M8169.21,1388c2.3-2.3,9-19.83,9-19.83,1.13-6-1.27-6.41-2.18-7.46s-43.37-11.6-52.53-12.22-19.54,4.28-25,6.11" transform="translate(-7688.42 -535.75)"/>
        <path d="M8169.21,1388a29.36,29.36,0,0,0,2.08-5l1.71-5.17,3.29-10.37-.1.35a14.26,14.26,0,0,0,.1-2.38,3.33,3.33,0,0,0-.41-1.6,1.51,1.51,0,0,0-.38-.38,10.09,10.09,0,0,1-1.24-1l-.11-.1a1.48,1.48,0,0,0,.19.22,1.5,1.5,0,0,0,.23.18c.06,0,.22.11.16.09l-.18-.05-.55-.16-1.26-.34c-3.48-.88-7.07-1.71-10.62-2.55l-21.39-5.1-10.66-2.51c-1.77-.39-3.54-.8-5.26-1.1a25.18,25.18,0,0,0-5.05-.4,53.84,53.84,0,0,0-10.56,1.44c-1.78.4-3.55.85-5.35,1.3s-3.59.92-5.42,1.26c3.3-1.68,6.54-3.47,10-4.89a43.52,43.52,0,0,1,11-3.22,27.16,27.16,0,0,1,6-.17c1.93.16,3.78.4,5.63.68,3.69.55,7.33,1.23,11,2q10.88,2.22,21.57,5.15c3.57,1,7.11,2,10.69,3.22l1.37.48.76.3.46.21a3.47,3.47,0,0,1,.31.17,3.81,3.81,0,0,1,.38.27,3.85,3.85,0,0,1,.34.31l0,0a11.54,11.54,0,0,0,.86.79,6.18,6.18,0,0,1,1.3,1.79,7.65,7.65,0,0,1,.64,3.77,18,18,0,0,1-.48,3.11l-.06.26,0,.09c-1.54,3.34-3.13,6.63-4.88,9.86-.86,1.62-1.75,3.23-2.72,4.8-.48.79-1,1.57-1.51,2.32A11.49,11.49,0,0,1,8169.21,1388Z" transform="translate(-7688.42 -535.75)"/>
      </g>
      <g>
        <path class="cls-2" d="M8127.87,1370.74c3.44,2.3,31.39,9.57,35.6,6.89" transform="translate(-7688.42 -535.75)"/>
        <path d="M8127.87,1370.74c1.62.19,3.16.21,4.7.34s3.06.28,4.57.47q4.52.59,8.9,1.58c2.93.64,5.82,1.42,8.69,2.27l4.3,1.32c.71.22,1.44.43,2.16.62a6.52,6.52,0,0,0,2.27.29,3.58,3.58,0,0,1-1,.84,10.3,10.3,0,0,1-1.17.53,14.17,14.17,0,0,1-2.42.66,26.86,26.86,0,0,1-4.82.41,43.24,43.24,0,0,1-9.34-1.09,47.87,47.87,0,0,1-8.88-2.91,35.57,35.57,0,0,1-4.21-2.21,21.73,21.73,0,0,1-2-1.39A8.7,8.7,0,0,1,8127.87,1370.74Z" transform="translate(-7688.42 -535.75)"/>
      </g>
      <g>
        <path class="cls-2" d="M8096.17,1379.28c2.79-1.27,18.74-7.69,22.79-6.93s39.25,11.59,43.55,13.62c0,0,6.33,3.44,6.58,5.46s-1,9.88-3,11.65-7.85,2.79-8.86,3.29" transform="translate(-7688.42 -535.75)"/>
        <path d="M8096.17,1379.28a89.76,89.76,0,0,1,11.21-5.87,62.9,62.9,0,0,1,6-2.32,28.46,28.46,0,0,1,3.26-.86l.94-.13.47-.06h.59a9.88,9.88,0,0,1,1.94.25c4.22.87,8.22,1.92,12.27,3s8,2.29,12,3.54,8,2.57,11.91,4l3,1.11c.49.19,1,.37,1.49.59s1,.38,1.57.67l.86.4.17.09.09.06.18.11.35.22c.47.3.93.6,1.39.91a31.26,31.26,0,0,1,2.69,2.09,12.58,12.58,0,0,1,1.34,1.33,8.79,8.79,0,0,1,.67.89,4.58,4.58,0,0,1,.62,1.5,2.78,2.78,0,0,1,.08.71,4.29,4.29,0,0,1,0,.53c0,.33,0,.63-.08.92-.07.58-.17,1.13-.27,1.68a29,29,0,0,1-2,6.34,12.32,12.32,0,0,1-.86,1.55,7.22,7.22,0,0,1-.57.77,4.65,4.65,0,0,1-.79.73,9.64,9.64,0,0,1-3.23,1.3c-1.06.25-2.11.43-3.15.58s-2.09.22-3.12.44c1.88-1,3.9-1.64,5.7-2.58a9.25,9.25,0,0,0,2.32-1.53,6.24,6.24,0,0,0,.93-2.28,31.34,31.34,0,0,0,.84-5.82c0-.49,0-1,0-1.43,0-.23,0-.45,0-.65a1.18,1.18,0,0,0,0-.25c0-.05,0-.19,0-.06s0,.12,0,.09-.17-.18-.33-.31a11.29,11.29,0,0,0-1-.77,26.85,26.85,0,0,0-2.42-1.51l-1.29-.7-.32-.17-.16-.08-.08,0s0,0,0,0l-.58-.2c-.34-.13-.9-.3-1.36-.45l-1.45-.47-3-.91-11.9-3.68c-4-1.26-7.93-2.52-11.88-3.82l-11.77-3.9a8.24,8.24,0,0,0-1.13-.3l-.19,0h-.93c-.91.07-1.88.21-2.87.37-2,.34-4,.81-6,1.29C8104.28,1377.14,8100.25,1378.24,8096.17,1379.28Z" transform="translate(-7688.42 -535.75)"/>
      </g>
      <g>
        <path class="cls-2" d="M8125.65,1395.6c2.26,1.81,21,7.23,23.72,7.68s10.05,2.94,10.28,6.55c0,0-.11,4.29-2.6,6.33s-6.55,2.94-12.65,3.84-21.24,3.84-24.85,5.42-28.24,7.91-33,8.81-29.59,2.94-33.21,2.26-11.52-1.58-15.14-.45-17.33-2.58-35.47,5.53" transform="translate(-7688.42 -535.75)"/>
        <path d="M8125.65,1395.6a23.9,23.9,0,0,0,4.43,1.58c1.52.42,3,.84,4.56,1.23q4.58,1.15,9.17,2.22c1.53.35,3.07.69,4.58,1,.37.07.76.14,1.09.18s.85.13,1.25.21c.84.17,1.64.39,2.44.64a21.56,21.56,0,0,1,4.71,2.05,10.28,10.28,0,0,1,2.25,1.79,5.54,5.54,0,0,1,1.53,3.24v.18a13.41,13.41,0,0,1-.39,3,11.16,11.16,0,0,1-1.16,3,8.63,8.63,0,0,1-1,1.42c-.22.21-.45.45-.67.63s-.42.34-.64.5a14.36,14.36,0,0,1-2.68,1.5,31.38,31.38,0,0,1-5.33,1.66c-1.74.41-3.48.72-5.18,1-6.63,1.16-13.38,2.66-19.87,4.28-.8.21-1.6.43-2.36.66l-1.08.36-1.12.44c-.51.21-.93.34-1.36.49l-1.28.41-2.51.77c-3.34,1-6.65,1.92-10,2.79s-6.68,1.72-10,2.53l-5.06,1.18c-.86.19-1.71.38-2.62.55s-1.86.29-2.74.39c-7,.7-13.81,1.13-20.74,1.41-1.73,0-3.47.09-5.22.09-.88,0-1.75,0-2.65,0-.45,0-.9,0-1.37-.06a13.14,13.14,0,0,1-1.59-.18c-1.59-.34-3.25-.61-4.9-.83s-3.31-.41-4.94-.48c-.82,0-1.62,0-2.41,0-.38,0-.78,0-1.13.11a4,4,0,0,0-.53.09l-.64.14a12.27,12.27,0,0,1-3,.16c-.89,0-1.75-.09-2.61-.15a82.15,82.15,0,0,0-10.16-.23,64.64,64.64,0,0,0-19.94,4.12,58.41,58.41,0,0,1,19.75-6.23,84.75,84.75,0,0,1,10.43-.6l2.54,0a9.76,9.76,0,0,0,2.16-.22l.61-.18a6.42,6.42,0,0,1,.73-.18c.48-.11.95-.18,1.42-.25.93-.12,1.84-.19,2.74-.22a56.92,56.92,0,0,1,10.64.67c.2,0,.59,0,1,0l1.2,0c.82,0,1.66-.07,2.5-.12,1.68-.1,3.38-.24,5.07-.38,6.78-.56,13.64-1.2,20.31-2.11.82-.12,1.65-.23,2.35-.38s1.59-.36,2.41-.55l5-1.24q5-1.26,9.93-2.58c3.3-.89,6.62-1.74,9.88-2.67l2.42-.71,1.18-.37c.38-.12.79-.25,1.07-.36l1.29-.49c.47-.16.92-.3,1.37-.44.88-.25,1.75-.48,2.61-.7,3.42-.86,6.83-1.5,10.24-2.12s6.81-1.18,10.29-1.66a50.38,50.38,0,0,0,9.54-1.85,10,10,0,0,0,1.87-.9c.14-.08.26-.18.4-.27l.29-.23a4.22,4.22,0,0,0,.52-.62,6.9,6.9,0,0,0,.81-1.78,12,12,0,0,0,.42-2v.18a1.56,1.56,0,0,0-.41-1,6.56,6.56,0,0,0-1.35-1.25,18.15,18.15,0,0,0-3.8-2c-.68-.28-1.39-.52-2.08-.73-.37-.11-.64-.17-1.07-.27s-.83-.22-1.22-.33c-1.55-.46-3-1-4.55-1.47q-4.51-1.51-8.93-3.25c-1.47-.58-2.95-1.17-4.39-1.82A21.5,21.5,0,0,1,8125.65,1395.6Z" transform="translate(-7688.42 -535.75)"/>
      </g>
    </g>
    <g id="L_Arm_copy_6" data-name="L_Arm copy 6">
      <path class="cls-7" d="M7932.19,1424.25c11.93-40.65,71.93-127.63,74.65-152.05" transform="translate(-7688.42 -535.75)"/>
      <path class="cls-3" d="M7912.95,1422.71c5.17-5.17,86.17-59,94-51.82,7.33,6.72,47.79,79.32,38.59,92.6-6.93,10-101.08,59.26-127.55,64.31-13.27,2.53-82.55,2.68-95.53-3.85-21.66-10.91-6.52-36.36-.75-79.07,7.76-57.34,68.95-245.11,117-274,29.06-17.47,80.89-17.22,95.81-37.57" transform="translate(-7688.42 -535.75)"/>
      <g id="Cuff_copy_6" data-name="Cuff copy 6">
        <path class="cls-9" d="M8053.56,1454.67c-4.07,16.11-21.65,10.73-27.31,9.43s-52.29-80.69-52.29-80.69l32.57-15.74Z" transform="translate(-7688.42 -535.75)"/>
        <path class="cls-7" d="M8044.17,1445c-2.84,11.95-23.72,35.52-41.42,29.7s-35.59-80.27-40.45-86,43.13-29.66,49.11-17.72C8014.78,1377.67,8047.54,1430.82,8044.17,1445Z" transform="translate(-7688.42 -535.75)"/>
        <circle class="cls-10" cx="8010.76" cy="1465.87" r="4.23" transform="translate(-7665.06 2518.38) rotate(-21.62)"/>
      </g>
    </g>
    <g id="Table_copy_9" data-name="Table copy 9">
      <rect y="987.59" width="989.9" height="12.41"/>
    </g>
    <g id="ArmCrease_R_copy_9" data-name="ArmCrease_R copy 9">
      <path class="cls-3" d="M8423.23,1437.29c9,0,25-3,33-1.33" transform="translate(-7688.42 -535.75)"/>
    </g>
  </g>
</svg>
