<svg id="Blink" xmlns="http://www.w3.org/2000/svg" view-box="0 0 1263.46 1222.58"><defs><style>.cls-1,.cls-2,.cls-3,.cls-5,.cls-6,.cls-7,.cls-8,.cls-9{fill:#fff;}.cls-2,.cls-3,.cls-4,.cls-5,.cls-6,.cls-7,.cls-8,.cls-9{stroke:#000;stroke-miterlimit:10;}.cls-2,.cls-4,.cls-7{stroke-width:8px;}.cls-4{fill:none;}.cls-4,.cls-7{stroke-linecap:round;}.cls-5{stroke-width:10px;}.cls-6{stroke-width:6px;}.cls-8{stroke-width:4px;}.cls-9{stroke-width:2px;}</style></defs><title>Blink_1</title><g id="_1" data-name="1"><g id="BG"><path class="cls-1" d="M7016.6,7387.08l88.5,42c-3,22.5-121.49,147-121.49,147s-69,130.49-76.5,142.49-34.5,70.5-34.5,70.5-63,18-61.5-4.5,181.49-375,205.49-397.48" transform="translate(-6539.58 -6677.63)"/><path class="cls-1" d="M7385,7382.21c19.5,15,100.49,115.49,100.49,126s-30,70.5-28.5,91.5,10.5,189,15,208.49,12,90,12,90l-537-3.5s-4.89-8.37-1.6-25.56c11.33-59.33.75-237,29.33-323.33" transform="translate(-6539.58 -6677.63)"/></g><g id="Neck"><path class="cls-2" d="M7118.26,7266.6c6.82,30.23,14.35,73-64.66,152-40.26,40.26,141.82,55.91,182.11,52.57,44.12-3.66,109.73-27.25,118.09-57.34s-59.14-27.85-69.08-94c-6.28-41.82-1.13-56.62-1.13-56.62Z" transform="translate(-6539.58 -6677.63)"/></g><g id="Head"><g id="Layer_120" data-name="Layer 120"><path class="cls-1" d="M6985.66,7000.79c-6.37,25.47,8.91,109.5,16.55,122.24s378.17-19.1,380.71-33.11,16.55-63.66-14-100.59-370.53-14-383.26,11.46" transform="translate(-6539.58 -6677.63)"/></g><path class="cls-1" d="M7383.5,7059.5c11,37-21,168-47,196-17.74,19.11-74,64.87-94,68-14,2.19-59,4.14-77.9,1.69,0,0-100.1-46.69-116.1-77.69-18.79-36.41-66-123-61-188" transform="translate(-6539.58 -6677.63)"/><path d="M7383.5,7059.5a59.64,59.64,0,0,1,2.31,12.3c.4,4.17.53,8.35.53,12.54,0,8.37-.64,16.72-1.49,25a461,461,0,0,1-8.18,49.5q-2.65,12.27-5.93,24.4c-2.18,8.09-4.55,16.13-7.18,24.11s-5.49,15.89-8.79,23.69c-1.67,3.89-3.44,7.75-5.42,11.55a91.62,91.62,0,0,1-6.7,11.15c-.63.91-1.34,1.79-2,2.67s-1.5,1.75-2.22,2.52c-1.46,1.58-2.94,3.11-4.43,4.61-3,3-6,5.91-9.13,8.77-6.17,5.73-12.53,11.22-19,16.55s-13.09,10.54-19.86,15.55-13.69,9.87-21,14.29a119,119,0,0,1-11.48,6.16,54.45,54.45,0,0,1-6.42,2.49,29.83,29.83,0,0,1-3.67.88l-3.28.46c-8.54,1-16.89,1.52-25.29,1.93s-16.79.67-25.22.63a225.54,225.54,0,0,1-25.59-1.24l-.75-.09-.7-.33c-6.52-3.1-12.88-6.29-19.24-9.56s-12.68-6.6-18.93-10.07c-12.49-7-24.82-14.26-36.8-22.19-6-4-11.89-8.11-17.57-12.59a141,141,0,0,1-16.29-14.66,57.47,57.47,0,0,1-6.94-9c-.52-.81-1-1.73-1.43-2.58l-1.2-2.37-2.41-4.75q-4.8-9.52-9.5-19.13c-6.24-12.81-12.23-25.77-17.76-38.92s-10.53-26.54-14.86-40.15a294.8,294.8,0,0,1-10.21-41.57,163.29,163.29,0,0,1-1.87-42.6c-.71,14.22,1,28.38,3.88,42.23a314.14,314.14,0,0,0,11.71,40.75c4.74,13.33,10.21,26.39,16.06,39.27s12.13,25.58,18.68,38.15c3.27,6.29,6.62,12.53,10,18.8l2.5,4.71,1.25,2.36c.41.71.76,1.37,1.22,2a50.48,50.48,0,0,0,6.31,7.64,133.6,133.6,0,0,0,15.81,13.32c5.63,4.11,11.45,8,17.38,11.8,11.87,7.52,24.16,14.48,36.62,21.11s25.08,13.11,37.78,19.07l-1.45-.42a217.73,217.73,0,0,0,24.33,1c8.24,0,16.51-.18,24.76-.54s16.54-.83,24.56-1.72l2.91-.39a20.38,20.38,0,0,0,2.4-.57,45.09,45.09,0,0,0,5.24-2,109.67,109.67,0,0,0,10.57-5.6c7-4.12,13.84-8.69,20.55-13.47s13.3-9.77,19.78-14.9q4.86-3.85,9.62-7.82c3.18-2.63,6.35-5.29,9.46-8s6.18-5.46,9.16-8.27c1.49-1.41,3-2.83,4.36-4.27.73-.73,1.34-1.42,2-2.12s1.22-1.47,1.8-2.26a84.67,84.67,0,0,0,6.37-10.13c1.95-3.55,3.73-7.24,5.44-11,3.42-7.46,6.47-15.14,9.28-22.92,5.64-15.55,10.3-31.5,14.47-47.57s7.54-32.36,10.06-48.78c1.23-8.21,2.18-16.47,2.64-24.76.22-4.14.33-8.3.16-12.45A59.31,59.31,0,0,0,7383.5,7059.5Z" transform="translate(-6539.58 -6677.63)"/><path class="cls-3" d="M6984.77,7012.69c-3.46-17.3,0-126.26,19-166,17.36-36.29,81.29-77.83,147-84.75s81.29-5.19,112.43,6.92,76.1,45,91.67,72.64,31.13,133.18,29.4,173" transform="translate(-6539.58 -6677.63)"/></g><g id="Stubble"><ellipse cx="600.75" cy="581.9" rx="2.5" ry="2.78"/><ellipse cx="611.88" cy="606.38" rx="2.5" ry="2.78"/><ellipse cx="628.85" cy="588.35" rx="2.5" ry="2.78"/><ellipse cx="631.3" cy="611.82" rx="2.5" ry="2.78"/><ellipse cx="663.13" cy="586.44" rx="2.5" ry="2.78"/><ellipse cx="617.33" cy="487.24" rx="2.5" ry="2.78"/><ellipse cx="634.28" cy="480.77" rx="2.5" ry="2.78"/><ellipse cx="649.68" cy="478.45" rx="2.5" ry="2.78"/><ellipse cx="666.12" cy="477.87" rx="2.5" ry="2.78"/><ellipse cx="683.96" cy="482.43" rx="2.5" ry="2.78"/><ellipse cx="653.83" cy="616.17" rx="2.5" ry="2.78"/><ellipse cx="678.08" cy="613.71" rx="2.5" ry="2.78"/><ellipse cx="691.85" cy="587.2" rx="2.5" ry="2.78"/><ellipse cx="714.77" cy="580.71" rx="2.5" ry="2.78"/><ellipse cx="703.71" cy="607.16" rx="2.5" ry="2.78"/></g><g id="Hair"><path d="M6981.31,7028.26c3.47-8,6.19-18.76,3.46-49.76-2.46-27.93,8.9-79.49,18.78-91.8,20.35-25.37,52.61-60.14,51.69-87.71s-48.56-58.49-54.13-54-40.39,32.48-62.06,72.93c-12.14,22.65-13.86,75.47-4.43,152.33C6942.09,7031.19,6981.31,7028.26,6981.31,7028.26Z" transform="translate(-6539.58 -6677.63)"/><path d="M6985.19,6761.6c12-14.48,22.09-26.27,31.28-33.82,13.25-10.88,65.06-50.15,144.2-50.15s109.39,41.36,128.08,46.86,55,27.48,70.34,15.39,20.88,14.29,15.39,36.27-29.68,55-67,70.34-104.16,19.77-135.85,15.81c-36.72-4.59-93.63-5-127.16-23.41C7020.92,6826,6973.73,6775.39,6985.19,6761.6Z" transform="translate(-6539.58 -6677.63)"/><path d="M7322.5,6821.5c3.67,3.79,16,32,28.67,59.33,11,23.75,13.66,52.37,18,75.15,3.9,20.35,10,36,11.67,39.41,9.28,18.3,33.65-83.23,19-138.37-12.65-47.7-30.58-83.37-57.46-104.59s-52.34-11.32-52.34,0S7322.5,6821.5,7322.5,6821.5Z" transform="translate(-6539.58 -6677.63)"/><path d="M7360.43,6759.48c12.81,17,28.64,39.12,37.24,39.45s-11.31,3.6-25.87-5.25S7360.43,6759.48,7360.43,6759.48Z" transform="translate(-6539.58 -6677.63)"/></g><g id="L_Brow"><path d="M7123.32,6954.82c-29.88-10.07-55.05-2.07-70.64,5.86-9.46,4.81-10.31,9.07-7.71,10.61a7.31,7.31,0,0,0,6.55.45c6.66-2.75,20.83-10.52,44.13-10.44,9.55,0,21.78,2.85,21.78,2.85S7129.41,6956.88,7123.32,6954.82Z" transform="translate(-6539.58 -6677.63)"/></g><g id="L_Eye"><path d="M7110.38,6999.8c-11.19-3.61-40-.15-51.37,9-7.93,6.35,6.17,3.89,6.17,3.89s20.35-9.81,37.18-7.53S7110.38,6999.8,7110.38,6999.8Z" transform="translate(-6539.58 -6677.63)"/><circle cx="548.94" cy="338.88" r="14.74"/></g><g id="R_Brow"><path d="M7240.44,6955.31c20.19-7.77,49.48-11.42,70.38.56,15.17,8.69-1.15,7.5-1.15,7.5s-15.5-7.7-44-3.19a185.54,185.54,0,0,0-21.13,5.14S7234.62,6957.55,7240.44,6955.31Z" transform="translate(-6539.58 -6677.63)"/></g><g id="R_Eye"><path d="M7254.77,7002c9.93-6.29,38.67-10.13,52-4.14,9.27,4.17-5,5.31-5,5.31s-22.15-4.42-37.88,2S7254.77,7002,7254.77,7002Z" transform="translate(-6539.58 -6677.63)"/><circle cx="743.6" cy="335.14" r="14.74"/></g><g id="Nose"><path d="M7193,7115.68c18-3,25.94-7,25.94-7L7214,7105c-4.08,3.17-39.72,5.57-49.2,2.19l-5.47,4.15S7180.29,7117.82,7193,7115.68Z" transform="translate(-6539.58 -6677.63)"/></g><g id="Mouth"><path d="M7150,7189.45c1.48-2,3-7.6,6.41-6.41,16.45,5.78,51.71,5.78,76.87-3.94,10.76-4.16,12.32,2.46,12.32,2.46s-15.34,16.53-50.44,16.23C7156.84,7197.48,7150,7189.45,7150,7189.45Z" transform="translate(-6539.58 -6677.63)"/></g><g id="R_Ear"><path class="cls-1" d="M7376.77,7010.36c9.71-37.83,39.3-41.61,50.49-24.21s11.89,60.31-1.94,83.22c-14,23.22-40.81,24.32-46.4,15" transform="translate(-6539.58 -6677.63)"/><path d="M7376.77,7010.36c1.38-8.83,4.51-17.64,10.29-25.06a35.91,35.91,0,0,1,4.93-5.09,30.91,30.91,0,0,1,6-4,25.8,25.8,0,0,1,14.53-2.88,23.93,23.93,0,0,1,13.87,6.29c.46.45.94.89,1.38,1.37l1.27,1.46,1.14,1.56c.37.52.64,1.06,1,1.6l.93,1.61a11.89,11.89,0,0,1,.84,1.63l1.46,3.31c3.39,8.94,4.75,18.19,5.21,27.4a113.4,113.4,0,0,1-2.26,27.52c-.25,1.13-.46,2.27-.75,3.39l-.93,3.36c-.55,2.25-1.47,4.43-2.23,6.63a14.53,14.53,0,0,1-.66,1.63l-.73,1.61c-.51,1.06-.92,2.16-1.51,3.19a70.29,70.29,0,0,1-3.7,6.08,45.94,45.94,0,0,1-4.55,5.48,40.79,40.79,0,0,1-5.34,4.71,42,42,0,0,1-12.53,6.44,33.6,33.6,0,0,1-13.86,1.37,22,22,0,0,1-6.68-1.92A14.12,14.12,0,0,1,7381,7087a9.09,9.09,0,0,1-2.06-2.7,9.71,9.71,0,0,0,2.44,2.2,13.22,13.22,0,0,0,2.95,1.32,20.54,20.54,0,0,0,6.35.82,32.05,32.05,0,0,0,12.38-2.85,41,41,0,0,0,18.53-16.42c4.32-7.12,6.79-15.43,8.31-23.85.18-1.06.4-2.11.55-3.17l.41-3.2c.32-2.13.41-4.29.59-6.43.1-1.07.14-2.15.17-3.23l.1-3.23c0-2.15-.06-4.31-.09-6.46s-.21-4.3-.45-6.43-.44-4.27-.84-6.36c-.18-1-.34-2.11-.53-3.15l-.72-3.09c-.12-.51-.23-1-.36-1.54l-.47-1.49c-.33-1-.58-2-.93-3l-1.14-2.85a8.44,8.44,0,0,0-.64-1.36l-.7-1.31a17.54,17.54,0,0,0-3.3-4.62,18,18,0,0,0-9.81-5.14,19.34,19.34,0,0,0-5.77-.12,24.65,24.65,0,0,0-5.75,1.52,30.37,30.37,0,0,0-10.19,7,49,49,0,0,0-7.73,10.36A81.64,81.64,0,0,0,7376.77,7010.36Z" transform="translate(-6539.58 -6677.63)"/><path d="M7395,7019.24a10.73,10.73,0,0,1,4.81,3.38c.31.37.61.76.92,1.15s.51.8.77,1.21a15.47,15.47,0,0,1,1.28,2.54,26,26,0,0,1-.93,21.43,19.48,19.48,0,0,1-3.35,4.62,14.09,14.09,0,0,1-2.27,1.84,10.92,10.92,0,0,1-2.68,1.23l-.44-.4c.46-.66,1-1.27,1.38-2a23.21,23.21,0,0,0,1.11-2.13,29.33,29.33,0,0,0,1.65-4.52,40.4,40.4,0,0,0,1.39-9.55,41.81,41.81,0,0,0-.57-9.63l-.22-1.19-.31-1.16c-.11-.39-.2-.78-.32-1.16l-.42-1.12a15.23,15.23,0,0,0-2.24-4.19Z" transform="translate(-6539.58 -6677.63)"/></g><g id="L_Ear"><path class="cls-1" d="M6984.81,7026.63c-12.85-40-42.26-42.36-51.74-23s-6.41,65.39,9.19,89.17c15.81,24.1,50.9,23.12,55.58,12.74" transform="translate(-6539.58 -6677.63)"/><path d="M6984.81,7026.63c-1-2.22-1.95-4.41-3.05-6.54s-2.23-4.23-3.5-6.24a53.64,53.64,0,0,0-8.76-10.91,30.28,30.28,0,0,0-11.28-7.06,18.37,18.37,0,0,0-12.2-.08,17,17,0,0,0-8.88,7.76,31.82,31.82,0,0,0-2.45,5.91,52.26,52.26,0,0,0-1.57,6.56,91.64,91.64,0,0,0-1.38,13.75,132.83,132.83,0,0,0,.29,14,139.52,139.52,0,0,0,4.7,27.59,92.83,92.83,0,0,0,4.7,13,63.73,63.73,0,0,0,3.15,6.08,39.42,39.42,0,0,0,3.88,5.45,42,42,0,0,0,10.33,8.66,47.87,47.87,0,0,0,12.75,5.19,44.31,44.31,0,0,0,13.88,1.27,25.79,25.79,0,0,0,6.86-1.41,10.19,10.19,0,0,0,5.55-4.15,7.82,7.82,0,0,1-2.06,3,14.33,14.33,0,0,1-3,2.15,26.08,26.08,0,0,1-7,2.42,43.62,43.62,0,0,1-14.86.27,48.06,48.06,0,0,1-14.37-4.44,46.13,46.13,0,0,1-6.57-3.91,45.08,45.08,0,0,1-5.83-5,42.29,42.29,0,0,1-4.86-6,65.32,65.32,0,0,1-3.89-6.53,89.71,89.71,0,0,1-5.7-13.88,113.86,113.86,0,0,1-3.63-14.43,134.15,134.15,0,0,1-1.93-14.72,123.1,123.1,0,0,1-.26-14.88,93.18,93.18,0,0,1,1.78-14.93,58.25,58.25,0,0,1,2-7.42,35.92,35.92,0,0,1,3.38-7.27,25,25,0,0,1,5.55-6.24,22.14,22.14,0,0,1,7.46-3.89,23.59,23.59,0,0,1,16.1,1.16,34.94,34.94,0,0,1,12.26,9.28C6978.92,7007.92,6982.71,7017.22,6984.81,7026.63Z" transform="translate(-6539.58 -6677.63)"/><path d="M6965.14,7038.74a36.84,36.84,0,0,0,.8,5.32l.23,1.2c.11.41.19.81.28,1.2s.15.78.25,1.17.21.79.29,1.18c.7,3.11,1.39,6.18,2,9.28s1.16,6.2,1.73,9.36l.85,4.85c.11.87.36,1.63.49,2.57a10.61,10.61,0,0,0,.32,1.32c.09.47.23.93.33,1.46l-.4.44c-.61-.64-1.3-1.23-1.86-1.92s-1.14-1.37-1.6-2.13a35.08,35.08,0,0,1-2.51-4.68,49.09,49.09,0,0,1-3.21-10.09,50.32,50.32,0,0,1-.92-10.54,23,23,0,0,1,.17-2.65l.14-1.32c.07-.44.17-.88.26-1.31a16.8,16.8,0,0,1,1.88-5Z" transform="translate(-6539.58 -6677.63)"/></g><g id="Top"><line class="cls-1" y1="1214.54" x2="1263.46" y2="1215.12"/><path d="M6539.58,7892.17q157.93-2.41,315.87-3c52.64-.34,105.29-.4,157.93-.6l157.93-.15,157.93.28,79,.32,79,.42q157.93,1,315.86,3.26-157.93,2.43-315.87,3l-79,.35-79,.25-157.93.14-157.93-.29c-52.64-.24-105.29-.35-157.93-.74Q6697.51,7894.47,6539.58,7892.17Z" transform="translate(-6539.58 -6677.63)"/></g><g id="Torso"><g id="R"><path d="M7460.21,7571.88a51.29,51.29,0,0,0-1.88,10.06c-.37,3.39-.55,6.8-.6,10.2-.12,6.82.06,13.64.47,20.46.74,13.63,2.09,27.24,3.48,40.85s2.93,27.21,4.51,40.81,3,27.24,4.41,40.88,2.58,27.31,3.55,41,1.67,27.43,1.73,41.2a295,295,0,0,1-2.11,41.27c-.25,1.71-.48,3.42-.8,5.12l-.45,2.55-.52,2.54a87.46,87.46,0,0,1-2.66,10,54.34,54.34,0,0,1-4.11,9.53,28.24,28.24,0,0,1-6.45,8,27.79,27.79,0,0,0,5.65-8.44,53.75,53.75,0,0,0,3.32-9.59,120.43,120.43,0,0,0,3.09-20.1c.56-6.77.78-13.58.78-20.39s-.13-13.63-.42-20.44-.7-13.63-1.13-20.44-1-13.62-1.59-20.43q-1.71-20.43-3.85-40.85l-4.07-40.89c-1.26-13.65-2.6-27.3-3.52-41s-1.71-27.42-1.76-41.18c0-6.88.19-13.77.81-20.63.31-3.43.73-6.85,1.36-10.24A51.74,51.74,0,0,1,7460.21,7571.88Z" transform="translate(-6539.58 -6677.63)"/></g><g id="L"><path d="M6946.5,7895.56a99.57,99.57,0,0,1-3.69-18.83c-.29-3.19-.65-6.38-.79-9.58l-.28-4.8c-.09-1.6-.12-3.2-.18-4.8-.36-12.8-.16-25.61.34-38.38s1.26-25.53,2.06-38.27,1.88-25.46,2.84-38.18l3.05-38.12c1.07-12.7,1.9-25.41,2.72-38.11.21-3.18.38-6.35.53-9.53l.24-4.77.19-4.76.2-4.77.12-4.77.11-4.77v-4.76c0-1.59,0-3.18,0-4.77l-.1-4.76c0-3.18-.3-6.34-.44-9.52-.08-1.59-.29-3.16-.44-4.74l-.24-2.37c-.07-.79-.24-1.57-.35-2.35-.27-1.56-.44-3.15-.79-4.7l-1.15-4.64c2.39,5.95,3.6,12.3,4.61,18.63.4,3.18.88,6.36,1.1,9.56l.42,4.79c.13,1.6.19,3.2.29,4.8.67,12.8.66,25.61.33,38.4s-1,25.55-1.73,38.31-1.78,25.48-2.74,38.2l-3.17,38.13c-1.13,12.7-2.08,25.4-3.05,38.1s-1.73,25.41-2.06,38.12S6944,7883,6946.5,7895.56Z" transform="translate(-6539.58 -6677.63)"/></g><g id="Matte"><path class="cls-1" d="M6948.5,7641.5c6-7,18-27,23-36s-30-50-30-50l-42,30-5,39,54,17" transform="translate(-6539.58 -6677.63)"/></g></g><g id="Ramen"><path class="cls-4" d="M7238.94,7844.44c14-4.37,61.25-28.87,43.75-39.37s-56.87-4.37-61.25-20.12,7.87-37.62,7.87-51.62-7.87-10.5-9.62-15.75" transform="translate(-6539.58 -6677.63)"/><path class="cls-4" d="M7265.19,7782.32c8.75.87,40.25,16.62,34.12,30.62" transform="translate(-6539.58 -6677.63)"/><path class="cls-4" d="M7192.57,7745.58c-16.62,12.25-32.68,30.56-28.68,51.89,4.35,23.22,22,26.67,37.43,16.35,13-8.66,21.87-9.25,28-4.87" transform="translate(-6539.58 -6677.63)"/><path class="cls-4" d="M7144.45,7791.95c6.12-7,6.12-28,3.5-35" transform="translate(-6539.58 -6677.63)"/><path class="cls-4" d="M7158.45,7761.32c-.87-10.5,9.62-15.75,13.12-14" transform="translate(-6539.58 -6677.63)"/><path class="cls-4" d="M7249.44,7778.82c-9.62-1.75-25.37-11.37-7-39.37" transform="translate(-6539.58 -6677.63)"/><path class="cls-4" d="M7206.57,7784.95c-6.12-10.5-2.62-42,7-51.62" transform="translate(-6539.58 -6677.63)"/><path class="cls-4" d="M7166.32,7837.44c13.12,3.5,42,13.12,53.37.87s14-19.25,21.87-17.5" transform="translate(-6539.58 -6677.63)"/><path class="cls-4" d="M7251.88,7814.14c5.33,2.67,12,2.67,10.67,6.67" transform="translate(-6539.58 -6677.63)"/><path class="cls-4" d="M7291.22,7766.14c3.33,4.67,6.67,10,5.33,16.67" transform="translate(-6539.58 -6677.63)"/><path class="cls-4" d="M7262.55,7760.8c6.67-5.33,8.67-14,4.67-21.33" transform="translate(-6539.58 -6677.63)"/><path class="cls-4" d="M7255.22,7746.14c-6.67,8-12.67,20.67-1.33,22.67s25.33,2.67,29.33,7.33" transform="translate(-6539.58 -6677.63)"/><path class="cls-4" d="M7279.88,7758.8c4.67-10,10-34.67-20-35.33" transform="translate(-6539.58 -6677.63)"/><path class="cls-4" d="M7192.55,7770.8c-6,8-12,24-6,28.67s9.33,4.67,17.33-.67" transform="translate(-6539.58 -6677.63)"/><path class="cls-4" d="M7295.88,7751.47c7.33,7.33,18.67,23.33,14,37.33" transform="translate(-6539.58 -6677.63)"/><path class="cls-4" d="M7105.88,7782.8c10.67.67,36,14.67,40,30.67" transform="translate(-6539.58 -6677.63)"/><path class="cls-4" d="M7131.88,7782.8c4.67-4,7.33-14,4.67-20s-5.33-19.33,2.67-22.67,39.16-8.42,48.67-12.67c11.27-5,24-9.58,18.67-24" transform="translate(-6539.58 -6677.63)"/><path class="cls-4" d="M7243.88,7725.47c-.67-9.33,2.67-26.67,13.33-28,8.6-1.07,26,6,28,19.33" transform="translate(-6539.58 -6677.63)"/><path class="cls-4" d="M7290.38,7731.51c6.92,5.66,31.46,14.47,33.34,35.86s-3.15,29.57-9.44,34" transform="translate(-6539.58 -6677.63)"/><path class="cls-4" d="M7284.08,7695.65c6.92,5,16.36,18.87,13.84,26.42" transform="translate(-6539.58 -6677.63)"/><path class="cls-4" d="M7137.5,7821.47c6.29,2.52,17,7.55,22,7.55" transform="translate(-6539.58 -6677.63)"/><path class="cls-4" d="M7111.08,7819.58c5.66,4.4,28.94,18.24,37.12,18.87" transform="translate(-6539.58 -6677.63)"/><path class="cls-4" d="M7086.54,7807.63c5.66,6.29,16.36,5,21.39,2.52s13.84-2.52,17,1.26" transform="translate(-6539.58 -6677.63)"/><path class="cls-4" d="M7079,7776.8c.63,6.29,2.52,12.58,10.69,13.21" transform="translate(-6539.58 -6677.63)"/><path class="cls-4" d="M7101,7711.37c-10.07,8.81-23.91,22.92-23.91,37.12,0,15.1,11.32,23.28,19.5,26.42" transform="translate(-6539.58 -6677.63)"/><path class="cls-4" d="M7101.64,7725.84c-6.92,9.44-13.84,19.5-4.4,31.46s19.5,17,23.91,18.24" transform="translate(-6539.58 -6677.63)"/><path class="cls-4" d="M7114.22,7730.25c-5.66,3.15-10.69,12-7.55,18.87" transform="translate(-6539.58 -6677.63)"/><path class="cls-4" d="M7128.69,7729c-6.27,3.37-9.44,13.21-10.07,21.39s2.52,14.47,5,17" transform="translate(-6539.58 -6677.63)"/><path class="cls-4" d="M7192.86,7663.56c4.4,8.81,15.73,15.1,23.28,16.36s21.39,2.52,25.16,7.55" transform="translate(-6539.58 -6677.63)"/><path class="cls-4" d="M7208.59,7691.24c6.29,0,21.39,3.15,23.91,6.92s1.89,7.55-1.26,8.81" transform="translate(-6539.58 -6677.63)"/><path class="cls-4" d="M7257.66,7686.84c6.92-2.52,25.87-7.2,35.23-2.52,11.32,5.66,20.13,27.05,15.1,44" transform="translate(-6539.58 -6677.63)"/><path class="cls-4" d="M7149.45,7694.39c6.92-2.52,12-5.66,13.84-9.44" transform="translate(-6539.58 -6677.63)"/><path class="cls-4" d="M7163.92,7670.48c6.92,2.52,19.5,8.81,17,17.62s-21.39,22-42.15,22.65" transform="translate(-6539.58 -6677.63)"/><path class="cls-4" d="M7146.31,7718.92c8.81.63,45.3-6.92,47.18-22.65s-10.69-23.91-22-34.6-11.32-27.05-1.26-34.6,25.16-14.47,38.38-7.55c8.36,4.38,15.1,12.58,14.47,17.62" transform="translate(-6539.58 -6677.63)"/><path class="cls-4" d="M7189.09,7651.61c-2.52-3.77,1.89-13.84,11.32-5.66" transform="translate(-6539.58 -6677.63)"/><path class="cls-4" d="M7184.06,7657.27c-7.55-2.52-10.42-16.18-6.92-22,3.77-6.29,10.07-10.07,20.13-4.4s12.58,16.36,19.5,18.87,17-1.85,22.65-6.92c6.29-5.66,17,0,19.5,2.52" transform="translate(-6539.58 -6677.63)"/><path class="cls-4" d="M7198.52,7658.53c5.66-2.52,11.32-2.52,14.47,0" transform="translate(-6539.58 -6677.63)"/><path class="cls-4" d="M7225.58,7659.79c3.77-.63,13.32-1.13,17,3.15s9.44,3.77,14.47,3.77" transform="translate(-6539.58 -6677.63)"/><path class="cls-4" d="M7224.32,7618.89c4.4,2.52,10.07,8.81,9.44,13.21" transform="translate(-6539.58 -6677.63)"/><path class="cls-4" d="M7245.71,7652.24c6.29-.63,39,6.29,42.15,16.36" transform="translate(-6539.58 -6677.63)"/><path class="cls-4" d="M7209.85,7668.59c6.29,0,25.79,3.15,34,8.18s17.62-.63,22.65-2.52,6.29-2.52,9.44-1.89" transform="translate(-6539.58 -6677.63)"/><path class="cls-4" d="M7138.13,7697.53c-8.18,1.89-17,4.4-16.36,12.58.65,8.42,9.44,10.07,15.73,12" transform="translate(-6539.58 -6677.63)"/><path class="cls-4" d="M7113.59,7720.18c-3.77-6.92-6.83-20.53-2.52-25.79,5.66-6.92,13.21-8.18,23.91-8.81s20.76-1.26,18.24-14.47-5.66-16.36-5.66-16.36" transform="translate(-6539.58 -6677.63)"/><path class="cls-4" d="M7092,7702.94c-1.47-8.32,17.15-31.2,36.66-28.05" transform="translate(-6539.58 -6677.63)"/><path class="cls-4" d="M7137.57,7655.45c-3.43,4.9-2,14.2,3.43,16.16" transform="translate(-6539.58 -6677.63)"/><path class="cls-4" d="M7137.57,7636.84c3.43-3.43,14.2-8.81,17.62-7.34" transform="translate(-6539.58 -6677.63)"/></g><g id="Bowl"><path class="cls-5" d="M7073.5,7763.5c0,27.15,20.69,127.42,65,128.85s127,.77,144.31-.14c41.7-2.19,51-92.41,46.7-126.7C7322.74,7759,7082.28,7759.27,7073.5,7763.5Z" transform="translate(-6539.58 -6677.63)"/></g><g id="R_Hand"><path id="Pinkie" class="cls-6" d="M7277.17,7860.37c7.21-1.71-46,15.76-52.91,18.51s-1.38,11,0,16.51,53.08-10.25,69.59-14.38c0,0,16.69-7.13,28.57-7.13s37.47-3.09,45.69-4.91,25.59-8.79,33.81-9.71,43.86-6.4,42-22.85-.91-40.21-7.31-44.78" transform="translate(-6539.58 -6677.63)"/><path id="Rhumb" class="cls-6" d="M7265.47,7783.66c-.69-1.7-14.52-11-22.3-13.3-9.94-2.88-25-5-26.58-10.37s3.24-16.68,5.83-15.82c15,5,30.07,5.31,36.63,6.66,9.42,1.94,35,2.92,38.82,3,11.75.15,29.42,5.57,36.09,9.52,42.33,25,63.3,8.21,72.21,28.56,4,9.12,7.43,60,7.43,60" transform="translate(-6539.58 -6677.63)"/><g id="Ring"><path class="cls-1" d="M7266.05,7852.43c-9.72,1.1-74.16,4.73-80.23,1.42s-9.49-17.12-6.08-18.73c5.23-2.45,76.09-4.62,82.16-3.52" transform="translate(-6539.58 -6677.63)"/><path d="M7266.05,7852.43c-3.79.7-7.61,1.19-11.43,1.67s-7.65.87-11.48,1.27c-7.66.73-15.33,1.4-23,1.82s-15.39.76-23.18.69c-2,0-3.91-.07-5.9-.19-1-.06-2-.16-3.06-.31-.53-.08-1.08-.17-1.67-.31a10.11,10.11,0,0,1-1-.28,6.47,6.47,0,0,1-1.14-.52,14.82,14.82,0,0,1-5-5.12,26.64,26.64,0,0,1-2.69-5.89,21.81,21.81,0,0,1-1.15-6.54,11.57,11.57,0,0,1,.15-1.93,7.09,7.09,0,0,1,.79-2.34,5.07,5.07,0,0,1,1.1-1.35,4.41,4.41,0,0,1,.85-.58,3.33,3.33,0,0,1,.4-.18l.35-.13a13.86,13.86,0,0,1,1.82-.45c2.1-.38,4-.56,6-.73s3.88-.31,5.81-.43c3.86-.23,7.72-.37,11.57-.51s7.7-.25,11.55-.27l11.54,0,11.55.2c3.85.13,7.7.27,11.54.49a95.85,95.85,0,0,1,11.51,1.15c-1.92-.07-3.84.08-5.75.2s-3.83.24-5.75.38l-11.49.83-23,1.61c-7.64.56-15.3,1-22.89,1.72-1.9.16-3.79.33-5.67.53s-3.77.42-5.44.73a9.46,9.46,0,0,0-1,.23h0l.07,0a1.62,1.62,0,0,0,.26-.17,1,1,0,0,0,.21-.23,2.35,2.35,0,0,0-.09.39,5.72,5.72,0,0,0-.06.94,17.69,17.69,0,0,0,.83,4.76,20.8,20.8,0,0,0,2,4.59,9.3,9.3,0,0,0,2.87,3.18,6.37,6.37,0,0,0,1.73.43c.84.13,1.75.22,2.66.31,1.83.18,3.71.29,5.6.38,3.78.17,7.59.23,11.41.26l11.48.07,23-.1C7250.68,7852.54,7258.36,7852.54,7266.05,7852.43Z" transform="translate(-6539.58 -6677.63)"/></g><g id="Index"><path class="cls-1" d="M7258.72,7809.09s-80.41,1.14-83.83,1.14-7.12-17.17-1.71-19.56c5.13-2.26,65.17-4.21,74.25-4.84,0,0,18.11.24,22.71-.84" transform="translate(-6539.58 -6677.63)"/><path d="M7258.72,7809.09c-15,1.33-30,2.13-45,2.8l-11.26.47-11.26.35-11.26.33-2.82.05-1.41,0h-1.09a3.51,3.51,0,0,1-.63-.1,4.14,4.14,0,0,1-1-.39,6,6,0,0,1-2-1.84,11.72,11.72,0,0,1-1-1.62,20.53,20.53,0,0,1-1.2-3.06,30.72,30.72,0,0,1-1.2-6.11,20.37,20.37,0,0,1,.33-6.57,9.21,9.21,0,0,1,1.77-3.74,6.25,6.25,0,0,1,2.07-1.64,8.61,8.61,0,0,1,2-.65c2.12-.42,4-.6,5.89-.8,7.6-.71,15.09-1,22.62-1.3,15-.6,30.08-.64,45-.7h.1c3.77.2,7.56.36,11.35.5,1.89.06,3.79.09,5.68.12a44.77,44.77,0,0,0,5.67-.23,38.75,38.75,0,0,1-5.63,1c-1.89.23-3.79.37-5.69.52-3.8.29-7.59.47-11.41.59h.1c-15,1.51-30,2.51-44.93,3.58q-5.6.4-11.19.86c-3.72.29-7.45.59-11.11,1-1.81.2-3.69.41-5.26.74a5.54,5.54,0,0,0-.64.17s0,0-.11.11a3.54,3.54,0,0,0-.55,1.34,15.47,15.47,0,0,0-.23,4.63,24.88,24.88,0,0,0,.91,4.93,14.85,14.85,0,0,0,.82,2.19,6.14,6.14,0,0,0,.45.8c.11.19.29.28,0,.1a1.74,1.74,0,0,0-.37-.13l-.28,0h2.08l2.81,0,11.25,0,11.25,0,11.26.16C7228.68,7807.77,7243.69,7808.17,7258.72,7809.09Z" transform="translate(-6539.58 -6677.63)"/></g><g id="Layer_20" data-name="Layer 20"><path class="cls-1" d="M7266.26,7831.32c-8.2.91-92,1.82-101.09,1.82s-10.25-19.36-5.69-20.27c0,0,95.66-5.26,103.14-4.09" transform="translate(-6539.58 -6677.63)"/><path d="M7266.26,7831.32c-5.23.74-10.49,1.1-15.75,1.51s-10.51.71-15.77,1l-15.78.78-15.78.61c-5.26.19-10.52.3-15.78.45s-10.52.28-15.79.33l-4,0-2,0h-.5l-.72,0a8.11,8.11,0,0,1-1.45-.23,9.51,9.51,0,0,1-4.78-2.95,14.6,14.6,0,0,1-2.58-4.18,23.53,23.53,0,0,1-1.76-8.81,18.56,18.56,0,0,1,.5-4.68,9.67,9.67,0,0,1,1.05-2.64,6.26,6.26,0,0,1,1.22-1.47,5.36,5.36,0,0,1,1-.68,5.85,5.85,0,0,1,1.25-.45l.15,0h.27q12.9-.65,25.8-1.1l12.9-.45,12.91-.3,6.46-.14,6.46-.06c4.31,0,8.61-.09,12.92-.05s8.62,0,12.93.17a122.11,122.11,0,0,1,12.92.79c-4.3,0-8.59.44-12.88.72l-12.87,1-12.87,1q-6.43.51-12.87,1l-12.87.93-12.87.84q-12.87.87-25.75,1.61l.42-.05a.73.73,0,0,0,.33-.11c.07,0,.16-.12.18-.11s0,0,0,.05a4.07,4.07,0,0,0-.37,1,12.76,12.76,0,0,0-.3,3.15,18.93,18.93,0,0,0,1.27,6.58,8.79,8.79,0,0,0,1.49,2.53,3.63,3.63,0,0,0,1.79,1.2,2.35,2.35,0,0,0,.49.08l.26,0h6.39c5.26,0,10.52,0,15.77,0l15.78.06,15.78.16,15.78.26,15.78.34,7.89.19C7261,7831.28,7263.63,7831.34,7266.26,7831.32Z" transform="translate(-6539.58 -6677.63)"/></g><g id="Crease"><path class="cls-1" d="M7282.21,7787.91c-4.73.3-20.3-5.26-25.61-10.57" transform="translate(-6539.58 -6677.63)"/><path d="M7282.23,7788.21a23,23,0,0,1-7.33-.09c-1.2-.19-2.4-.39-3.59-.64s-2.36-.57-3.53-.91l-3.57-.94a13.25,13.25,0,0,1-1.73-.66,12.54,12.54,0,0,1-1.59-1,14.4,14.4,0,0,1-2.75-2.7,12.4,12.4,0,0,1-1.08-1.72,8,8,0,0,1-.68-2l.42-.42c.76.06,1.33.21,2,.3s1.18.23,1.76.36a27.73,27.73,0,0,1,3.25.95,12.06,12.06,0,0,1,3,1.53,28.47,28.47,0,0,0,2.86,1.87c1,.56,2,1.08,3,1.59s2.05,1,3.1,1.52a30.19,30.19,0,0,0,6.45,2.37Z" transform="translate(-6539.58 -6677.63)"/></g><ellipse id="Filler" class="cls-1" cx="792.14" cy="1151.02" rx="58.31" ry="33.92"/></g><g id="R_Arm"><path class="cls-7" d="M7402.5,7374.5c20,34,92.24,35.3,130,58,62.41,37.52,141.92,281.49,152,356,7.5,55.49,30.29,106.64-1,102.74-28-3.49-290,14.81-290-2.81s-10.77-116,6.86-121.29,144.53,18.6,142.12-.63c-5.29-42.3-104-176.65-107.49-208.38" transform="translate(-6539.58 -6677.63)"/><path class="cls-1" d="M7579.5,7772.5c-18-6-48,0-48,0" transform="translate(-6539.58 -6677.63)"/><path d="M7579.41,7772.78a61.85,61.85,0,0,0-11.9-1.08l-3,0-3,.14c-1,0-2,.1-3,.17s-2,.13-3,.25-2,.22-3,.37l-2.94.5a40.15,40.15,0,0,1-5.91.57,55.27,55.27,0,0,1-12.24-.94l-.12-.59a26.53,26.53,0,0,1,5.72-2.79,39.75,39.75,0,0,1,6-1.65,28.11,28.11,0,0,1,6.14-.53l3.1.11c1,.07,2.06.11,3.09.14a86.76,86.76,0,0,1,12.3,1.23,53.62,53.62,0,0,1,11.82,3.49Z" transform="translate(-6539.58 -6677.63)"/><path class="cls-8" d="M7392,7881.23c7.33,7.33,18.94,3.14,25.23-1s8.38-120.43,8.38-120.43l-30.08,7.92Z" transform="translate(-6539.58 -6677.63)"/><path class="cls-6" d="M7396.14,7867.18c9.15,13.07,45.65,31.55,64.25,16.05s-.7-107.51,2.4-116.81-63.56-8.05-66.66,1.25S7385.29,7851.67,7396.14,7867.18Z" transform="translate(-6539.58 -6677.63)"/><circle class="cls-9" cx="906.92" cy="1198.78" r="5.49"/></g><g id="Scarf"><g id="Layer_17" data-name="Layer 17"><path class="cls-2" d="M7139.53,7607.37c22.57,6.2,67.61-10.41,82.61-25.41s53.59-48.86,95.59-48.86,62.53-39.41,66.91-58.41c6.37-27.61,22.3-32.92,21.24-64.79-.87-26.18-21.79-97.81-66.79-97.81-24.52,0-51,55.5-73.5,88.5s-76.5,87-118.49,100.49-33.13,109.09-7.57,106.29" transform="translate(-6539.58 -6677.63)"/></g><path class="cls-2" d="M7096.52,7468.56c2-15.64,15.64-39.1,37.14-45,7.12-1.94,20.24-5.38,35-9.62,29.74-8.55,66-20.33,72.56-29.48,9.77-13.68,55.48-35.21,46.92-48.87-7-11.21-5-15.91-6.53-24.71-.76-4.52,3.82-11,7-13.18,7.91-5.27,11.45-9.24,20.21-7.91,9.85,1.5,22.7.88,33,5.83,13.11,6.31,40.41,17.41,48.44,36.16,10.43,24.34,31.79,65.66-2.77,84.82s-143.29,55.61-163.28,90.61c-26.78,46.87-83.76,85.92-84.64,100.12-1.2,19.36-54.74,11.73-70.38-37.14s-62-69.71-56.11-95.12,24.25-56.86,16.12-81.25c-10.1-30.29-1.05-65.14,14.58-80.78s50.72-22.36,65.65-15.33c18.32,14.75,28.35,8.49,16.72,24.89-11.13,15.71-11.78,30.71-23.81,39.25,0,0,49.91,37.13,64.59,53.91" transform="translate(-6539.58 -6677.63)"/></g><g id="Chopsticks"><path class="cls-6" d="M7059.08,7556.16c6,5.91,172.07,199.37,171,208.24s-167.39-183.68-180.41-195.59C7045.07,7564.64,7055.08,7552.19,7059.08,7556.16Z" transform="translate(-6539.58 -6677.63)"/><path class="cls-6" d="M7087.83,7532.4c5.07,6.69,142.25,221.64,139.9,230.26s-139.83-205.44-151-219.06C7072.77,7538.82,7084.43,7527.91,7087.83,7532.4Z" transform="translate(-6539.58 -6677.63)"/><g id="Matte-3" data-name="Matte"><path class="cls-1" d="M7254.89,7753.23c3.81.85-5.93,14.41-5.93,14.41s-30.09-4.24-30.51-8.48c-.45-4.54,1.37-15.08,4.66-13.56" transform="translate(-6539.58 -6677.63)"/></g></g><g id="L_Hand"><g id="Layer_34" data-name="Layer 34"><path class="cls-1" d="M7027.78,7704.85c24.34-11.59,49.84-31.87,62.58-31.87h69.54c9.27,0,12.75,26.08,11.59,31.29s-8.11,26.66-18.54,32.45-92.14,29.55-105.47,26.66S7027.78,7704.85,7027.78,7704.85Z" transform="translate(-6539.58 -6677.63)"/></g><path class="cls-1" d="M6932,7716.07c26.25-14.67,81.11-24.57,87.7-25.89s51.4-29,59.31-32.95,25-21.09,32.95-22.41,18.45,2.64,26.36,2.64,48.77-2.64,52.72,2.64,10.13,25,7.49,30.24" transform="translate(-6539.58 -6677.63)"/><path d="M6932,7716.07a127.11,127.11,0,0,1,17.57-8.43q9.08-3.58,18.41-6.48c12.42-3.88,25-7.14,37.73-10q4.76-1.07,9.53-2.08l2.38-.5,1.18-.25c.18,0,.42-.08.56-.13l.4-.13a41.8,41.8,0,0,0,4.13-1.93c5.64-3,11.21-6.31,16.75-9.62s11.12-6.64,16.67-10,11.1-6.7,16.78-10l2.17-1.21,2.1-1.12a43.1,43.1,0,0,0,3.76-2.51c2.53-1.85,5-3.88,7.55-5.91s5.1-4,7.74-6a75.55,75.55,0,0,1,8.42-5.64,19,19,0,0,1,5.35-2.13,26.81,26.81,0,0,1,5.5-.32,69.64,69.64,0,0,1,10,1.42c3.2.62,6.33,1.29,9.33,1.58.76.09,1.48.11,2.22.14s1.56,0,2.36,0l4.85-.09c6.49-.09,13-.16,19.54,0,3.26,0,6.53.2,9.81.41a93.73,93.73,0,0,1,9.86,1.1,22.92,22.92,0,0,1,5,1.38,8.41,8.41,0,0,1,1.3.69,5.22,5.22,0,0,1,.66.53,3.76,3.76,0,0,1,.56.67,18.32,18.32,0,0,1,1.29,2.27,58.75,58.75,0,0,1,3.43,9.3,75,75,0,0,1,2.08,9.6,36.2,36.2,0,0,1,.37,4.9,17,17,0,0,1-.15,2.45,6.75,6.75,0,0,1-.69,2.34,6.64,6.64,0,0,0,.45-2.36,16.59,16.59,0,0,0-.09-2.41,37.11,37.11,0,0,0-.84-4.75,73.7,73.7,0,0,0-2.82-9.22,60.56,60.56,0,0,0-3.92-8.69,15.86,15.86,0,0,0-1.24-1.88.94.94,0,0,0-.24-.25,2.81,2.81,0,0,0-.31-.2,5.85,5.85,0,0,0-.88-.38,23.17,23.17,0,0,0-4.43-.89,147.72,147.72,0,0,0-19.18-.38c-6.45.16-12.9.5-19.38.86l-4.88.23c-.82,0-1.64.06-2.51.07s-1.78,0-2.64-.1c-3.46-.25-6.71-.88-9.89-1.41a71.25,71.25,0,0,0-9.25-1.12,21.46,21.46,0,0,0-4.19.26,13.83,13.83,0,0,0-3.62,1.54,70.34,70.34,0,0,0-7.68,5.25c-2.53,1.93-5,4-7.56,6s-5.11,4.05-7.83,6a48.43,48.43,0,0,1-4.35,2.84l-2.2,1.15-2.09,1.14c-11.18,6.39-22.46,12.91-33.81,19.24-5.73,3.11-11.42,6.22-17.39,9a37.23,37.23,0,0,1-4.78,2l-.78.19-.63.12-1.2.21-2.39.42q-4.78.85-9.55,1.76c-12.7,2.47-25.36,5.19-37.87,8.52-6.25,1.68-12.47,3.47-18.6,5.56A134.73,134.73,0,0,0,6932,7716.07Z" transform="translate(-6539.58 -6677.63)"/><path class="cls-1" d="M7200.47,7709.36c3-3,11.68-25.77,11.68-25.77,1.47-7.84-1.65-8.32-2.83-9.69s-56.35-15.08-68.25-15.87-25.4,5.56-32.54,7.94" transform="translate(-6539.58 -6677.63)"/><path d="M7200.47,7709.36a36.47,36.47,0,0,0,2.88-6.43c.82-2.21,1.6-4.44,2.38-6.66l4.52-13.4-.1.35a19.47,19.47,0,0,0,.19-3.2,5.19,5.19,0,0,0-.57-2.4,2.54,2.54,0,0,0-.63-.7,15.93,15.93,0,0,1-1.56-1.27l-.12-.12a1.24,1.24,0,0,0,.38.37c.06,0,.21.1.14.08l-.28-.09-.74-.23-1.65-.47c-4.53-1.2-9.19-2.3-13.81-3.42l-27.82-6.63c-4.64-1.09-9.27-2.18-13.9-3.18-2.31-.49-4.63-1-6.89-1.37a33.08,33.08,0,0,0-6.7-.44,68.31,68.31,0,0,0-13.78,2.14c-2.3.57-4.6,1.21-6.91,1.84s-4.62,1.31-7,1.83c4.34-2,8.6-4.25,13.13-6a57.9,57.9,0,0,1,14.2-3.92,35,35,0,0,1,7.61-.13c2.48.23,4.87.56,7.26.95,4.78.75,9.49,1.66,14.2,2.63q14.1,2.93,28,6.69c4.64,1.26,9.24,2.56,13.88,4.08.58.19,1.17.4,1.77.61.32.13.59.22.95.37l.55.25s.22.11.34.18a4.14,4.14,0,0,1,.4.28,4.19,4.19,0,0,1,.36.32l0,0c0,.09.59.52,1.17,1.06a7.29,7.29,0,0,1,1.55,2.11,9.4,9.4,0,0,1,.8,4.57,23.1,23.1,0,0,1-.57,3.93l-.05.24,0,.11c-1.93,4.36-3.92,8.66-6.1,12.89-1.07,2.12-2.18,4.23-3.39,6.29-.59,1-1.2,2.06-1.87,3.05-.34.5-.66,1-1,1.47-.19.24-.35.48-.56.7Z" transform="translate(-6539.58 -6677.63)"/><path class="cls-1" d="M7146.76,7687c4.48,3,40.78,12.43,46.25,9" transform="translate(-6539.58 -6677.63)"/><path d="M7146.76,7687c2,.42,4,.57,6,.86s3.93.55,5.88.87q5.84,1,11.57,2.25c3.82.84,7.61,1.8,11.39,2.77,1.89.49,3.77,1,5.67,1.46.94.22,1.9.45,2.85.62a8,8,0,0,0,2.93.13,4.72,4.72,0,0,1-.6.53l-.7.42a13.14,13.14,0,0,1-1.51.57,19.2,19.2,0,0,1-3.11.67,38.15,38.15,0,0,1-6.19.27,65.22,65.22,0,0,1-12-1.59,73.84,73.84,0,0,1-11.54-3.58,53.47,53.47,0,0,1-5.52-2.61c-.9-.51-1.79-1-2.64-1.62A11.83,11.83,0,0,1,7146.76,7687Z" transform="translate(-6539.58 -6677.63)"/><path class="cls-1" d="M7105.58,7698.08c3.62-1.65,24.35-10,29.61-9s51,15.07,56.59,17.7c0,0,8.23,4.47,8.55,7.1s-1.32,12.83-3.95,15.13-10.2,3.62-11.52,4.28" transform="translate(-6539.58 -6677.63)"/><path d="M7105.58,7698.08a128.81,128.81,0,0,1,14.7-7.21c2.53-1,5.09-2,7.77-2.86.67-.21,1.36-.39,2-.58s1.42-.31,2.14-.47l1.17-.15.59-.07.71,0a12,12,0,0,1,2.4.33c5.43,1.19,10.62,2.6,15.87,4.06s10.43,3,15.62,4.64,10.34,3.33,15.48,5.16l3.85,1.41c.64.24,1.29.48,1.94.74s1.25.48,2,.83l1.08.49.2.11.12.07.23.14.46.28q.91.56,1.79,1.16a39.48,39.48,0,0,1,3.46,2.63,15.65,15.65,0,0,1,1.68,1.65,10.59,10.59,0,0,1,.82,1.07,5.24,5.24,0,0,1,.72,1.71,3.23,3.23,0,0,1,.09.83,5.33,5.33,0,0,1,0,.64c0,.41,0,.78-.09,1.15-.07.74-.19,1.45-.32,2.15a37.66,37.66,0,0,1-2.41,8.16,15.23,15.23,0,0,1-1,2,8.76,8.76,0,0,1-.7,1,5.64,5.64,0,0,1-.95.9,12.67,12.67,0,0,1-4.06,1.72c-1.35.36-2.7.62-4,.86s-2.7.37-4,.7c2.47-1.21,5.11-2,7.49-3.12a12.46,12.46,0,0,0,3.15-2,7.88,7.88,0,0,0,1.41-3.07,39.94,39.94,0,0,0,1.26-7.64c0-.64.07-1.28.08-1.9,0-.31,0-.61,0-.88a2.15,2.15,0,0,0,0-.37c0-.09,0-.27,0-.17s-.06,0-.13-.12-.26-.31-.48-.49a13.8,13.8,0,0,0-1.32-1.08,34.89,34.89,0,0,0-3.19-2c-.56-.32-1.12-.64-1.69-.95l-.42-.23-.21-.11-.1-.05h0l-.8-.29c-.48-.19-1.19-.41-1.79-.61l-1.89-.62-3.84-1.22-15.46-4.83-15.46-4.92c-5.13-1.65-10.31-3.37-15.37-4.93a9.52,9.52,0,0,0-1.59-.38l-.31-.05h-.42l-.86,0c-1.22.12-2.49.31-3.78.55-2.58.49-5.19,1.15-7.79,1.82C7116,7695,7110.8,7696.53,7105.58,7698.08Z" transform="translate(-6539.58 -6677.63)"/><path class="cls-1" d="M7143.88,7719.28c2.94,2.35,27.3,9.39,30.82,10s13.06,3.82,13.36,8.51c0,0-.15,5.58-3.38,8.22s-8.51,3.82-16.44,5-27.59,5-32.29,7-36.69,10.27-42.86,11.45-38.45,3.82-43.15,2.94-15-2.05-19.67-.59-22.52-3.35-46.09,7.18" transform="translate(-6539.58 -6677.63)"/><path d="M7143.88,7719.28a14.26,14.26,0,0,0,2.8,1.22c1,.33,1.94.64,2.92.93,2,.58,3.93,1.14,5.9,1.68q5.93,1.59,11.88,3c2,.48,4,.94,5.95,1.35.49.1,1,.2,1.43.26s1.09.17,1.59.28c1.06.23,2.1.51,3.12.84a27.61,27.61,0,0,1,6,2.66,12.89,12.89,0,0,1,2.79,2.24,6.64,6.64,0,0,1,1.82,3.87v.18a17,17,0,0,1-.51,3.79,13.92,13.92,0,0,1-1.45,3.67,10.59,10.59,0,0,1-1.27,1.72c-.26.26-.54.53-.81.76s-.52.42-.79.61a17.91,17.91,0,0,1-3.36,1.86,39.91,39.91,0,0,1-6.82,2.08c-2.25.51-4.5.9-6.7,1.26-8.66,1.49-17.43,3.37-25.92,5.49-1.05.28-2.09.56-3.11.86l-1.44.48-1.48.58c-.63.26-1.17.42-1.72.61s-1.11.37-1.65.53c-1.09.35-2.17.67-3.25,1-4.33,1.26-8.63,2.48-13,3.6s-8.67,2.22-13,3.28l-6.56,1.55c-1.11.25-2.21.49-3.37.72s-2.37.38-3.5.51c-4.52.5-9,.84-13.45,1.16s-8.94.6-13.43.77c-2.25.08-4.49.14-6.76.16-1.13,0-2.27,0-3.42,0-.58,0-1.16,0-1.76-.07a16,16,0,0,1-2-.22c-2.1-.44-4.27-.77-6.43-1s-4.33-.49-6.48-.56c-1.07,0-2.13,0-3.18,0-.51,0-1,.08-1.52.16a5.39,5.39,0,0,0-.72.13l-.82.19a15.8,15.8,0,0,1-3.74.21c-1.15,0-2.27-.1-3.38-.17a107,107,0,0,0-13.24-.18,82.86,82.86,0,0,0-25.88,5.66,79.65,79.65,0,0,1,12.46-5,77.45,77.45,0,0,1,13.23-2.76,109.43,109.43,0,0,1,13.51-.65h3.31a13.36,13.36,0,0,0,2.92-.28l.8-.23a7.91,7.91,0,0,1,.92-.23c.61-.14,1.2-.22,1.8-.3,1.18-.14,2.35-.23,3.51-.25a75,75,0,0,1,13.71,1c.33,0,.84.07,1.35.07s1,0,1.59,0c1.08,0,2.17-.07,3.27-.13,2.2-.12,4.41-.28,6.61-.45,8.83-.68,17.74-1.48,26.45-2.64,1.08-.15,2.16-.29,3.12-.49s2.1-.46,3.17-.71l6.46-1.59q6.46-1.63,12.91-3.37c4.29-1.16,8.6-2.27,12.85-3.49,1.06-.3,2.12-.61,3.16-.93.53-.16,1-.32,1.54-.48s1-.33,1.43-.49l1.65-.62c.6-.2,1.16-.38,1.74-.56,1.13-.33,2.24-.62,3.35-.9,4.42-1.11,8.83-2,13.25-2.78s8.83-1.57,13.33-2.2,8.78-1.14,12.54-2.52a13.44,13.44,0,0,0,2.55-1.26c.19-.12.36-.26.55-.39l.43-.36.39-.43c.12-.17.25-.32.36-.5a12.41,12.41,0,0,0,1.65-5.3v.18a2.72,2.72,0,0,0-.7-1.61,9.19,9.19,0,0,0-1.89-1.71,24.25,24.25,0,0,0-5.07-2.62c-.91-.35-1.84-.67-2.76-.93-.49-.14-.87-.22-1.41-.34s-1.06-.27-1.56-.41c-2-.58-4-1.2-5.92-1.83q-5.87-1.89-11.64-4.07c-1.92-.73-3.84-1.46-5.73-2.28-.94-.41-1.89-.82-2.81-1.27A14.41,14.41,0,0,1,7143.88,7719.28Z" transform="translate(-6539.58 -6677.63)"/></g><g id="L_Arm"><path class="cls-6" d="M6892.5,7756.5c15.5-52.81,93.47-165.84,97-197.57" transform="translate(-6539.58 -6677.63)"/><path class="cls-2" d="M6867.5,7754.5c-2.43,1.79,112-76.7,122.2-67.33,9.53,8.73,62.09,103.06,50.14,120.33-9,13-131.33,77-165.73,83.56-17.25,3.29-107.26,3.49-124.13-5-28.14-14.17-8.48-47.25-1-102.74,10.08-74.51,89.59-318.48,152-356,37.76-22.7,105.11-22.38,124.5-48.81" transform="translate(-6539.58 -6677.63)"/><g id="Cuff"><path class="cls-8" d="M7050.21,7796c-5.28,20.93-28.13,13.94-35.49,12.26s-67.95-104.85-67.95-104.85l42.32-20.45Z" transform="translate(-6539.58 -6677.63)"/><path class="cls-6" d="M7038,7783.45c-3.69,15.53-30.82,46.15-53.82,38.59s-46.25-104.3-52.56-111.81,56-38.54,63.8-23C6999.81,7696,7042.38,7765,7038,7783.45Z" transform="translate(-6539.58 -6677.63)"/><circle class="cls-9" cx="6994.59" cy="7810.58" r="5.49" transform="translate(-8924.97 -3551.64) rotate(-21.62)"/></g><path class="cls-1" d="M6837.28,7777.7c17.73-14.89,25.17-22.07,39.55-27.87" transform="translate(-6539.58 -6677.63)"/><path d="M6837.09,7777.47c2.79-3,5.67-5.84,8.51-8.76l4.36-4.29q2.23-2.1,4.53-4.16c1.55-1.36,3.06-2.79,4.65-4.16a25.12,25.12,0,0,1,5.26-3.45,28.1,28.1,0,0,1,12.31-3.08l.22.56a30,30,0,0,1-2.35,2.16c-.79.67-1.58,1.31-2.37,1.94-1.58,1.25-3.16,2.41-4.73,3.58a50.91,50.91,0,0,1-4.93,3.17c-1.72,1-3.46,2-5.11,3.08s-3.3,2.28-4.94,3.46l-5,3.51c-3.35,2.3-6.65,4.69-10.06,6.93Z" transform="translate(-6539.58 -6677.63)"/></g></g></svg>
